G04*
G04 #@! TF.GenerationSoftware,Altium Limited,Altium Designer,24.4.1 (13)*
G04*
G04 Layer_Color=8421504*
%FSLAX44Y44*%
%MOMM*%
G71*
G04*
G04 #@! TF.SameCoordinates,999ADBB1-789E-4D5B-A825-673993AB2B7E*
G04*
G04*
G04 #@! TF.FilePolarity,Positive*
G04*
G01*
G75*
%ADD24R,1.0000X0.9500*%
%ADD25R,1.2700X1.3970*%
%ADD26R,0.3000X1.7000*%
%ADD27R,1.7000X0.3000*%
G04:AMPARAMS|DCode=28|XSize=5.5mm|YSize=1.5mm|CornerRadius=0.1875mm|HoleSize=0mm|Usage=FLASHONLY|Rotation=0.000|XOffset=0mm|YOffset=0mm|HoleType=Round|Shape=RoundedRectangle|*
%AMROUNDEDRECTD28*
21,1,5.5000,1.1250,0,0,0.0*
21,1,5.1250,1.5000,0,0,0.0*
1,1,0.3750,2.5625,-0.5625*
1,1,0.3750,-2.5625,-0.5625*
1,1,0.3750,-2.5625,0.5625*
1,1,0.3750,2.5625,0.5625*
%
%ADD28ROUNDEDRECTD28*%
%ADD29R,1.7780X0.2540*%
%ADD30R,1.9000X1.9000*%
%ADD31R,0.8000X1.2000*%
D24*
X922020Y551180D02*
D03*
Y570230D02*
D03*
Y590550D02*
D03*
Y610870D02*
D03*
Y631190D02*
D03*
Y650240D02*
D03*
Y670560D02*
D03*
Y690880D02*
D03*
X775970D02*
D03*
Y669290D02*
D03*
Y650240D02*
D03*
Y631190D02*
D03*
Y610870D02*
D03*
Y590550D02*
D03*
Y571500D02*
D03*
Y551180D02*
D03*
D25*
X552450Y774700D02*
D03*
X575310D02*
D03*
X633730D02*
D03*
X610870D02*
D03*
D26*
X568130Y618960D02*
D03*
X573130D02*
D03*
X578130D02*
D03*
X583130D02*
D03*
X588130D02*
D03*
X593130D02*
D03*
X598130D02*
D03*
X603130D02*
D03*
X608130D02*
D03*
X613130D02*
D03*
X618130D02*
D03*
X623130D02*
D03*
Y534200D02*
D03*
X618130D02*
D03*
X613130D02*
D03*
X608130D02*
D03*
X603130D02*
D03*
X598130D02*
D03*
X593130D02*
D03*
X588130D02*
D03*
X583130D02*
D03*
X578130D02*
D03*
X573130D02*
D03*
X568130D02*
D03*
D27*
X638010Y604080D02*
D03*
Y599080D02*
D03*
Y594080D02*
D03*
Y589080D02*
D03*
Y584080D02*
D03*
Y579080D02*
D03*
Y574080D02*
D03*
Y569080D02*
D03*
Y564080D02*
D03*
Y559080D02*
D03*
Y554080D02*
D03*
Y549080D02*
D03*
X553250D02*
D03*
Y554080D02*
D03*
Y559080D02*
D03*
Y564080D02*
D03*
Y569080D02*
D03*
Y574080D02*
D03*
Y579080D02*
D03*
Y584080D02*
D03*
Y589080D02*
D03*
Y594080D02*
D03*
Y599080D02*
D03*
Y604080D02*
D03*
D28*
X635590Y345440D02*
D03*
X550590D02*
D03*
D29*
X934252Y292940D02*
D03*
Y299440D02*
D03*
Y305940D02*
D03*
Y312440D02*
D03*
Y318640D02*
D03*
D30*
X963930Y266440D02*
D03*
Y345440D02*
D03*
D31*
X812800Y136450D02*
D03*
Y206450D02*
D03*
M02*
