G04*
G04 #@! TF.GenerationSoftware,Altium Limited,Altium Designer,24.4.1 (13)*
G04*
G04 Layer_Color=128*
%FSLAX44Y44*%
%MOMM*%
G71*
G04*
G04 #@! TF.SameCoordinates,999ADBB1-789E-4D5B-A825-673993AB2B7E*
G04*
G04*
G04 #@! TF.FilePolarity,Positive*
G04*
G01*
G75*
%ADD24R,1.0000X0.9500*%
%ADD75R,0.9500X1.0000*%
%ADD76R,0.8890X0.9500*%
%ADD77R,0.9500X0.8890*%
%ADD78R,1.4000X1.2000*%
%ADD79R,0.6200X1.2200*%
D24*
X682110Y774700D02*
D03*
X697110D02*
D03*
X868800Y298450D02*
D03*
X883800D02*
D03*
X562490Y965200D02*
D03*
X547490D02*
D03*
X900310Y267970D02*
D03*
X885310D02*
D03*
X882530Y325120D02*
D03*
X867530D02*
D03*
X600590Y386080D02*
D03*
X585590D02*
D03*
X821810Y690880D02*
D03*
X836810D02*
D03*
X787280Y599440D02*
D03*
X772280D02*
D03*
X429140Y585470D02*
D03*
X414140D02*
D03*
X384930Y996950D02*
D03*
X399930D02*
D03*
X429140Y678180D02*
D03*
X414140D02*
D03*
X399930Y956310D02*
D03*
X384930D02*
D03*
X414140Y711200D02*
D03*
X429140D02*
D03*
X384930Y922020D02*
D03*
X399930D02*
D03*
X414140Y615950D02*
D03*
X429140D02*
D03*
X384930Y857250D02*
D03*
X399930D02*
D03*
X275710Y326390D02*
D03*
X290710D02*
D03*
X491610Y774700D02*
D03*
X506610D02*
D03*
D75*
X900430Y632580D02*
D03*
Y647580D02*
D03*
X822960Y325000D02*
D03*
Y310000D02*
D03*
X819150Y590430D02*
D03*
Y575430D02*
D03*
X546100Y913010D02*
D03*
Y898010D02*
D03*
Y848480D02*
D03*
Y863480D02*
D03*
X849630Y211970D02*
D03*
Y196970D02*
D03*
D76*
X378264Y326472D02*
D03*
X363264D02*
D03*
X945076Y369488D02*
D03*
X960076D02*
D03*
X489146Y633648D02*
D03*
X504146D02*
D03*
X672026Y827958D02*
D03*
X687026D02*
D03*
X700844Y523322D02*
D03*
X685844D02*
D03*
D77*
X645078Y867214D02*
D03*
Y852214D02*
D03*
X651428Y661714D02*
D03*
Y676714D02*
D03*
X481248Y499154D02*
D03*
Y514154D02*
D03*
X482682Y370796D02*
D03*
Y355796D02*
D03*
X713822Y370796D02*
D03*
Y355796D02*
D03*
X848442Y151086D02*
D03*
Y136086D02*
D03*
D78*
X645194Y895966D02*
D03*
Y914966D02*
D03*
X731486Y913784D02*
D03*
Y894784D02*
D03*
Y861714D02*
D03*
Y842714D02*
D03*
D79*
X676274Y868281D02*
D03*
X695274Y894481D02*
D03*
X676274D02*
D03*
X685774D02*
D03*
X695324Y868281D02*
D03*
M02*
