G04*
G04 #@! TF.GenerationSoftware,Altium Limited,Altium Designer,24.4.1 (13)*
G04*
G04 Layer_Color=65535*
%FSLAX44Y44*%
%MOMM*%
G71*
G04*
G04 #@! TF.SameCoordinates,999ADBB1-789E-4D5B-A825-673993AB2B7E*
G04*
G04*
G04 #@! TF.FilePolarity,Positive*
G04*
G01*
G75*
%ADD10C,0.2540*%
%ADD11C,0.2000*%
%ADD12C,0.2032*%
%ADD13C,0.2500*%
%ADD14C,0.8890*%
%ADD15C,0.5080*%
%ADD16C,0.3810*%
%ADD17C,0.2360*%
%ADD18C,0.1778*%
%ADD19C,0.1524*%
%ADD20C,0.1016*%
%ADD21C,0.1270*%
%ADD22C,0.3048*%
%ADD23R,1.2700X2.5400*%
G36*
X963970Y277955D02*
X958970Y284955D01*
X968970D01*
X963970Y277955D01*
D02*
G37*
G36*
X950220Y291455D02*
Y298955D01*
X957720Y298955D01*
Y291455D01*
X950220D01*
D02*
G37*
D10*
X825246Y1018540D02*
G03*
X825246Y1018540I-25146J0D01*
G01*
X963689Y398780D02*
G03*
X963689Y398780I-9919J0D01*
G01*
Y424180D02*
G03*
X963689Y424180I-9919J0D01*
G01*
Y449580D02*
G03*
X963689Y449580I-9919J0D01*
G01*
X963442Y474980D02*
G03*
X963442Y474980I-9672J0D01*
G01*
X866496Y967740D02*
G03*
X866496Y967740I-9246J0D01*
G01*
X790969D02*
G03*
X790969Y967740I-9919J0D01*
G01*
X816369D02*
G03*
X816369Y967740I-9919J0D01*
G01*
X841769D02*
G03*
X841769Y967740I-9919J0D01*
G01*
X891808D02*
G03*
X891808Y967740I-9158J0D01*
G01*
X917969D02*
G03*
X917969Y967740I-9919J0D01*
G01*
X278760Y186690D02*
G03*
X278760Y186690I-40000J0D01*
G01*
X326149Y956310D02*
G03*
X326149Y956310I-9919J0D01*
G01*
X340119Y923290D02*
G03*
X340119Y923290I-9919J0D01*
G01*
X326149Y890270D02*
G03*
X326149Y890270I-9919J0D01*
G01*
X260109D02*
G03*
X260109Y890270I-9919J0D01*
G01*
X246139Y923290D02*
G03*
X246139Y923290I-9919J0D01*
G01*
X259862Y956310D02*
G03*
X259862Y956310I-9672J0D01*
G01*
X256299Y711200D02*
G03*
X256299Y711200I-9919J0D01*
G01*
X270589Y678180D02*
G03*
X270589Y678180I-10239J0D01*
G01*
X336309D02*
G03*
X336309Y678180I-9919J0D01*
G01*
X349518Y711200D02*
G03*
X349518Y711200I-9158J0D01*
G01*
X336062Y744220D02*
G03*
X336062Y744220I-9672J0D01*
G01*
X270022D02*
G03*
X270022Y744220I-9672J0D01*
G01*
X321578Y270510D02*
G03*
X321578Y270510I-9158J0D01*
G01*
X296178D02*
G03*
X296178Y270510I-9158J0D01*
G01*
X271870D02*
G03*
X271870Y270510I-8980J0D01*
G01*
X246648D02*
G03*
X246648Y270510I-9158J0D01*
G01*
X329586Y87524D02*
G03*
X310496Y87379I-9546J105D01*
G01*
X310494Y62081D02*
G03*
X329584Y62227I9546J-105D01*
G01*
X329586Y201824D02*
G03*
X310496Y201679I-9546J105D01*
G01*
X310494Y176381D02*
G03*
X329584Y176527I9546J-105D01*
G01*
X278760Y77470D02*
G03*
X278760Y77470I-40000J0D01*
G01*
X756432Y149860D02*
G03*
X756432Y149860I-9672J0D01*
G01*
Y175260D02*
G03*
X756432Y175260I-9672J0D01*
G01*
Y200660D02*
G03*
X756432Y200660I-9672J0D01*
G01*
X756999Y226060D02*
G03*
X756999Y226060I-10239J0D01*
G01*
Y251460D02*
G03*
X756999Y251460I-10239J0D01*
G01*
X461089Y149860D02*
G03*
X461089Y149860I-10239J0D01*
G01*
Y175260D02*
G03*
X461089Y175260I-10239J0D01*
G01*
Y200660D02*
G03*
X461089Y200660I-10239J0D01*
G01*
X460769Y226060D02*
G03*
X460769Y226060I-9919J0D01*
G01*
X960788Y175895D02*
G03*
X960788Y175895I-30188J0D01*
G01*
X589548Y906780D02*
G03*
X589548Y906780I-9158J0D01*
G01*
X614948D02*
G03*
X614948Y906780I-9158J0D01*
G01*
X589636Y881380D02*
G03*
X589636Y881380I-9246J0D01*
G01*
X614948D02*
G03*
X614948Y881380I-9158J0D01*
G01*
X614770Y855980D02*
G03*
X614770Y855980I-8980J0D01*
G01*
X589548D02*
G03*
X589548Y855980I-9158J0D01*
G01*
X635834Y966470D02*
G03*
X635834Y966470I-7184J0D01*
G01*
X651295D02*
G03*
X651295Y966470I-7405J0D01*
G01*
X666314D02*
G03*
X666314Y966470I-7184J0D01*
G01*
X681554D02*
G03*
X681554Y966470I-7184J0D01*
G01*
X443719Y965200D02*
G03*
X443719Y965200I-6839J0D01*
G01*
X458470D02*
G03*
X458470Y965200I-6350J0D01*
G01*
X473710D02*
G03*
X473710Y965200I-6350J0D01*
G01*
X488280D02*
G03*
X488280Y965200I-5680J0D01*
G01*
X504190D02*
G03*
X504190Y965200I-6350J0D01*
G01*
X519430D02*
G03*
X519430Y965200I-6350J0D01*
G01*
X0Y346710D02*
X179070D01*
X0Y1057910D02*
X179070D01*
Y346710D02*
Y1057910D01*
X0Y346710D02*
Y1057910D01*
X806704Y994156D02*
X823976Y1011428D01*
X804672Y994156D02*
X806704D01*
X800100Y994918D02*
X825246Y1020064D01*
X800100Y1003300D02*
X823722Y1026922D01*
X800100Y1003046D02*
Y1003300D01*
Y1012190D02*
X820166Y1032256D01*
X800100Y1011174D02*
Y1012190D01*
Y1020572D02*
X816610Y1037082D01*
X800100Y1028446D02*
X811784Y1040130D01*
X800100Y1028192D02*
Y1028446D01*
Y1036066D02*
X806196Y1042162D01*
X800100Y1031748D02*
Y1036066D01*
Y1031748D02*
Y1035812D01*
Y993648D02*
Y1043686D01*
X951230Y486410D02*
X1093470D01*
X951230Y386080D02*
X1093470D01*
Y486410D01*
X951230Y386080D02*
Y486410D01*
X920750Y953770D02*
Y979170D01*
X768350Y953770D02*
Y979170D01*
Y953770D02*
X920750D01*
X768350Y979170D02*
X920750D01*
X238760Y146690D02*
Y226690D01*
Y213106D02*
Y215138D01*
X248412Y224790D01*
X238760Y199644D02*
Y205486D01*
X255524Y222250D01*
X238760Y192278D02*
Y195326D01*
X261874Y218440D01*
X238760Y180848D02*
Y185420D01*
X267462Y214122D01*
X238760Y172974D02*
Y175006D01*
X272034Y208280D01*
X238760Y164846D02*
X275590Y201676D01*
X238760Y154686D02*
X277622Y193548D01*
X239268Y146812D02*
X242570D01*
X278638Y182880D01*
X256032Y151130D02*
X256540D01*
X274574Y169164D01*
X199390Y840740D02*
Y1007110D01*
X367030Y840740D02*
Y1007110D01*
X199390D02*
X367030D01*
X199390Y840740D02*
X367030D01*
X198120Y615950D02*
X389890D01*
X198120Y806450D02*
X389890D01*
Y615950D02*
Y806450D01*
X198120Y615950D02*
Y806450D01*
Y266700D02*
X350520D01*
X198120Y571500D02*
X350520D01*
Y266700D02*
Y571500D01*
X198120Y266700D02*
Y571500D01*
X768350Y534670D02*
X929640D01*
X768350Y775970D02*
X929640D01*
Y534670D02*
Y775970D01*
X768350Y534670D02*
Y775970D01*
X329692Y62484D02*
Y86868D01*
X310388Y62230D02*
Y87630D01*
X329692Y176784D02*
Y201168D01*
X310388Y176530D02*
Y201930D01*
X256540Y41910D02*
X274574Y59944D01*
X256032Y41910D02*
X256540D01*
X242570Y37592D02*
X278638Y73660D01*
X239268Y37592D02*
X242570D01*
X238760Y45466D02*
X277622Y84328D01*
X238760Y55626D02*
X275590Y92456D01*
X238760Y65786D02*
X272034Y99060D01*
X238760Y63754D02*
Y65786D01*
Y76200D02*
X267462Y104902D01*
X238760Y71628D02*
Y76200D01*
Y86106D02*
X261874Y109220D01*
X238760Y83058D02*
Y86106D01*
Y96266D02*
X255524Y113030D01*
X238760Y90424D02*
Y96266D01*
Y105918D02*
X248412Y115570D01*
X238760Y103886D02*
Y105918D01*
Y37470D02*
Y117470D01*
X763270Y101600D02*
Y299720D01*
X433070Y101600D02*
Y299720D01*
X763270D01*
X433070Y101600D02*
X763270D01*
X870910Y114935D02*
X990910D01*
Y234935D01*
X870910D02*
X990910D01*
X870910Y114935D02*
Y234935D01*
X794258Y143256D02*
X805688D01*
X819912D02*
X831342D01*
Y199644D01*
X794258Y143256D02*
Y199644D01*
X806450Y158750D02*
Y184150D01*
X819150D01*
Y158750D02*
Y184150D01*
X806450Y158750D02*
X819150D01*
X794258Y199644D02*
X805688D01*
X819912D02*
X831342D01*
X568960Y843280D02*
Y919480D01*
X617220Y843280D02*
Y919480D01*
X568960D02*
X617220D01*
X568960Y843280D02*
X617220D01*
X613410Y952500D02*
Y988060D01*
X689610Y952500D02*
Y988060D01*
X613410D02*
X689610D01*
X613410Y952500D02*
X689610D01*
X421640Y951230D02*
Y986790D01*
X528320Y951230D02*
Y986790D01*
X421640D02*
X528320D01*
X421640Y951230D02*
X528320D01*
X802767Y428368D02*
X812924D01*
X807845Y433447D02*
Y423290D01*
X737872Y1042668D02*
X735333Y1045208D01*
X730255D01*
X727716Y1042668D01*
Y1032512D01*
X730255Y1029973D01*
X735333D01*
X737872Y1032512D01*
X753108Y1029973D02*
X742951D01*
X753108Y1040129D01*
Y1042668D01*
X750568Y1045208D01*
X745490D01*
X742951Y1042668D01*
X758186Y1029973D02*
X763264D01*
X760725D01*
Y1045208D01*
X758186Y1042668D01*
X973833Y731007D02*
X968754D01*
X971293D01*
Y718311D01*
X968754Y715772D01*
X966215D01*
X963676Y718311D01*
X989068Y715772D02*
X978911D01*
X989068Y725929D01*
Y728468D01*
X986529Y731007D01*
X981450D01*
X978911Y728468D01*
X945134Y522478D02*
Y537713D01*
X952751D01*
X955291Y535174D01*
Y530095D01*
X952751Y527556D01*
X945134D01*
X960369Y522478D02*
X965447D01*
X962908D01*
Y537713D01*
X960369Y535174D01*
X745744Y1004565D02*
Y991869D01*
X748283Y989330D01*
X753362D01*
X755901Y991869D01*
Y1004565D01*
X768597Y989330D02*
Y1004565D01*
X760979Y996947D01*
X771136D01*
X43685Y323849D02*
Y334006D01*
X41146Y336545D01*
X36067D01*
X33528Y334006D01*
Y323849D01*
X36067Y321310D01*
X41146D01*
X38606Y326388D02*
X43685Y321310D01*
X41146D02*
X43685Y323849D01*
X48763Y321310D02*
X53841D01*
X51302D01*
Y336545D01*
X48763Y334006D01*
X321815Y124456D02*
X319275Y126995D01*
X314197D01*
X311658Y124456D01*
Y114299D01*
X314197Y111760D01*
X319275D01*
X321815Y114299D01*
X337050Y111760D02*
X326893D01*
X337050Y121917D01*
Y124456D01*
X334511Y126995D01*
X329432D01*
X326893Y124456D01*
X342128D02*
X344667Y126995D01*
X349746D01*
X352285Y124456D01*
Y114299D01*
X349746Y111760D01*
X344667D01*
X342128Y114299D01*
Y124456D01*
X321815Y238756D02*
X319275Y241295D01*
X314197D01*
X311658Y238756D01*
Y228599D01*
X314197Y226060D01*
X319275D01*
X321815Y228599D01*
X326893Y226060D02*
X331971D01*
X329432D01*
Y241295D01*
X326893Y238756D01*
X339589D02*
X342128Y241295D01*
X347206D01*
X349746Y238756D01*
Y236217D01*
X347206Y233678D01*
X349746Y231138D01*
Y228599D01*
X347206Y226060D01*
X342128D01*
X339589Y228599D01*
Y231138D01*
X342128Y233678D01*
X339589Y236217D01*
Y238756D01*
X342128Y233678D02*
X347206D01*
X210309Y138934D02*
X207770Y141473D01*
X202691D01*
X200152Y138934D01*
Y128777D01*
X202691Y126238D01*
X207770D01*
X210309Y128777D01*
X215387Y126238D02*
X220465D01*
X217926D01*
Y141473D01*
X215387Y138934D01*
X228083Y128777D02*
X230622Y126238D01*
X235700D01*
X238240Y128777D01*
Y138934D01*
X235700Y141473D01*
X230622D01*
X228083Y138934D01*
Y136395D01*
X230622Y133855D01*
X238240D01*
X204473Y248918D02*
X201934Y251458D01*
X196855D01*
X194316Y248918D01*
Y238762D01*
X196855Y236222D01*
X201934D01*
X204473Y238762D01*
X209551Y236222D02*
X214630D01*
X212090D01*
Y251458D01*
X209551Y248918D01*
X222247Y251458D02*
X232404D01*
Y248918D01*
X222247Y238762D01*
Y236222D01*
X689097Y342138D02*
X686558D01*
X681479Y337060D01*
X686558Y331981D01*
X689097D01*
X681479Y337060D02*
X673862D01*
Y326903D02*
Y321825D01*
Y324364D01*
X689097D01*
X686558Y326903D01*
X769620Y822193D02*
Y809497D01*
X772159Y806958D01*
X777237D01*
X779777Y809497D01*
Y822193D01*
X795012D02*
X789933Y819654D01*
X784855Y814576D01*
Y809497D01*
X787394Y806958D01*
X792473D01*
X795012Y809497D01*
Y812036D01*
X792473Y814576D01*
X784855D01*
X614680Y1033013D02*
Y1020317D01*
X617219Y1017778D01*
X622298D01*
X624837Y1020317D01*
Y1033013D01*
X640072D02*
X629915D01*
Y1025396D01*
X634993Y1027935D01*
X637533D01*
X640072Y1025396D01*
Y1020317D01*
X637533Y1017778D01*
X632454D01*
X629915Y1020317D01*
X913132Y256544D02*
X925828D01*
X928367Y259083D01*
Y264162D01*
X925828Y266701D01*
X913132D01*
X928367Y281936D02*
Y271779D01*
X918211Y281936D01*
X915672D01*
X913132Y279397D01*
Y274318D01*
X915672Y271779D01*
X538483Y638807D02*
Y626112D01*
X541022Y623573D01*
X546101D01*
X548640Y626112D01*
Y638807D01*
X553718Y623573D02*
X558797D01*
X556258D01*
Y638807D01*
X553718Y636268D01*
X433067Y1027934D02*
X430527Y1030473D01*
X425449D01*
X422910Y1027934D01*
Y1025395D01*
X425449Y1022856D01*
X430527D01*
X433067Y1020316D01*
Y1017777D01*
X430527Y1015238D01*
X425449D01*
X422910Y1017777D01*
X448302Y1030473D02*
X438145D01*
Y1022856D01*
X443223Y1025395D01*
X445763D01*
X448302Y1022856D01*
Y1017777D01*
X445763Y1015238D01*
X440684D01*
X438145Y1017777D01*
X412751Y242568D02*
X410212Y245107D01*
X405133D01*
X402594Y242568D01*
Y240029D01*
X405133Y237490D01*
X410212D01*
X412751Y234951D01*
Y232412D01*
X410212Y229872D01*
X405133D01*
X402594Y232412D01*
X425447Y229872D02*
Y245107D01*
X417829Y237490D01*
X427986D01*
X218441Y594358D02*
X215902Y596898D01*
X210823D01*
X208284Y594358D01*
Y591819D01*
X210823Y589280D01*
X215902D01*
X218441Y586741D01*
Y584202D01*
X215902Y581662D01*
X210823D01*
X208284Y584202D01*
X223519Y594358D02*
X226058Y596898D01*
X231137D01*
X233676Y594358D01*
Y591819D01*
X231137Y589280D01*
X228598D01*
X231137D01*
X233676Y586741D01*
Y584202D01*
X231137Y581662D01*
X226058D01*
X223519Y584202D01*
X213361Y825498D02*
X210822Y828037D01*
X205743D01*
X203204Y825498D01*
Y822959D01*
X205743Y820420D01*
X210822D01*
X213361Y817881D01*
Y815342D01*
X210822Y812803D01*
X205743D01*
X203204Y815342D01*
X228596Y812803D02*
X218439D01*
X228596Y822959D01*
Y825498D01*
X226057Y828037D01*
X220978D01*
X218439Y825498D01*
X217170Y1028698D02*
X214631Y1031237D01*
X209552D01*
X207013Y1028698D01*
Y1026159D01*
X209552Y1023620D01*
X214631D01*
X217170Y1021081D01*
Y1018542D01*
X214631Y1016003D01*
X209552D01*
X207013Y1018542D01*
X222248Y1016003D02*
X227327D01*
X224788D01*
Y1031237D01*
X222248Y1028698D01*
X783602Y218442D02*
Y233678D01*
X791219D01*
X793758Y231138D01*
Y226060D01*
X791219Y223521D01*
X783602D01*
X788680D02*
X793758Y218442D01*
X808993Y233678D02*
X798837D01*
Y218442D01*
X808993D01*
X798837Y226060D02*
X803915D01*
X824228Y231138D02*
X821689Y233678D01*
X816611D01*
X814072Y231138D01*
Y228599D01*
X816611Y226060D01*
X821689D01*
X824228Y223521D01*
Y220982D01*
X821689Y218442D01*
X816611D01*
X814072Y220982D01*
X839463Y233678D02*
X829307D01*
Y218442D01*
X839463D01*
X829307Y226060D02*
X834385D01*
X844542Y233678D02*
X854698D01*
X849620D01*
Y218442D01*
X783596Y507998D02*
Y492762D01*
X793753D01*
X808988Y505458D02*
X806448Y507998D01*
X801370D01*
X798831Y505458D01*
Y502919D01*
X801370Y500380D01*
X806448D01*
X808988Y497841D01*
Y495302D01*
X806448Y492762D01*
X801370D01*
X798831Y495302D01*
X814066Y492762D02*
X819144D01*
X816605D01*
Y507998D01*
X814066Y505458D01*
X554736Y806953D02*
Y791718D01*
X564893D01*
X580128D02*
X569971D01*
X580128Y801875D01*
Y804414D01*
X577589Y806953D01*
X572510D01*
X569971Y804414D01*
X618236Y806953D02*
Y791718D01*
X628393D01*
X633471D02*
X638549D01*
X636010D01*
Y806953D01*
X633471Y804414D01*
X27953Y229867D02*
X22875D01*
X25414D01*
Y217172D01*
X22875Y214632D01*
X20336D01*
X17796Y217172D01*
X33031Y214632D02*
Y224789D01*
X38110Y229867D01*
X43188Y224789D01*
Y214632D01*
Y222250D01*
X33031D01*
X58423Y227328D02*
X55884Y229867D01*
X50806D01*
X48267Y227328D01*
Y217172D01*
X50806Y214632D01*
X55884D01*
X58423Y217172D01*
X63502Y229867D02*
Y214632D01*
Y219711D01*
X73658Y229867D01*
X66041Y222250D01*
X73658Y214632D01*
X93972Y229867D02*
Y214632D01*
X101589D01*
X104129Y217172D01*
Y227328D01*
X101589Y229867D01*
X93972D01*
X119364Y227328D02*
X116824Y229867D01*
X111746D01*
X109207Y227328D01*
Y217172D01*
X111746Y214632D01*
X116824D01*
X119364Y217172D01*
X580387Y943605D02*
X575308D01*
X577848D01*
Y930909D01*
X575308Y928370D01*
X572769D01*
X570230Y930909D01*
X585465Y928370D02*
X590543D01*
X588004D01*
Y943605D01*
X585465Y941066D01*
X844552Y110504D02*
X859788D01*
Y118122D01*
X857248Y120661D01*
X854709D01*
X852170Y118122D01*
Y110504D01*
Y118122D01*
X849631Y120661D01*
X847092D01*
X844552Y118122D01*
Y110504D01*
Y125739D02*
X857248D01*
X859788Y128278D01*
Y133357D01*
X857248Y135896D01*
X844552D01*
Y140974D02*
Y151131D01*
Y146052D01*
X859788D01*
X844552Y156209D02*
Y166366D01*
Y161287D01*
X859788D01*
X844552Y179062D02*
Y173983D01*
X847092Y171444D01*
X857248D01*
X859788Y173983D01*
Y179062D01*
X857248Y181601D01*
X847092D01*
X844552Y179062D01*
X859788Y186679D02*
X844552D01*
X859788Y196836D01*
X844552D01*
D11*
X977630Y706270D02*
G03*
X977630Y706270I-1000J0D01*
G01*
X33940Y281940D02*
G03*
X33940Y281940I-1000J0D01*
G01*
X963930Y572770D02*
X989330D01*
X963930Y699770D02*
X989330D01*
X963930Y572770D02*
Y699770D01*
X989330Y572770D02*
Y699770D01*
X564130Y545080D02*
Y608080D01*
Y545080D02*
X627130D01*
Y608080D01*
X564130D02*
X627130D01*
D12*
X865913Y464565D02*
G03*
X866267Y464185I-39084J-36785D01*
G01*
D13*
X560880Y612580D02*
G03*
X560880Y612580I-1250J0D01*
G01*
D14*
X966510Y327295D02*
G03*
X966510Y327295I-2540J0D01*
G01*
D15*
X975930Y299955D02*
G03*
X975930Y299955I-2000J0D01*
G01*
X963970Y282445D02*
Y326895D01*
D16*
X973930Y306105D02*
G03*
X972055Y310633I-6403J0D01*
G01*
X955845Y304713D02*
G03*
X953970Y300185I4528J-4528D01*
G01*
X973930Y300225D02*
Y306105D01*
X953970Y295145D02*
Y300185D01*
X963325Y319363D02*
X972055Y310633D01*
X955845Y304713D02*
X963345Y312213D01*
X71120Y500380D02*
X54192D01*
X45728Y508844D01*
X54192Y517308D01*
X71120D01*
X58424D01*
Y500380D01*
X45728Y525772D02*
Y534236D01*
Y530004D01*
X71120D01*
Y525772D01*
Y534236D01*
Y546932D02*
X45728D01*
Y559627D01*
X49960Y563859D01*
X58424D01*
X62656Y559627D01*
Y546932D01*
Y555396D02*
X71120Y563859D01*
X66888Y614643D02*
X49960D01*
X45728Y610411D01*
Y601947D01*
X49960Y597715D01*
X66888D01*
X71120Y601947D01*
Y610411D01*
X62656Y606179D02*
X71120Y614643D01*
Y610411D02*
X66888Y614643D01*
X45728Y623107D02*
X66888D01*
X71120Y627339D01*
Y635803D01*
X66888Y640035D01*
X45728D01*
X71120Y648499D02*
X54192D01*
X45728Y656963D01*
X54192Y665427D01*
X71120D01*
X58424D01*
Y648499D01*
X45728Y673891D02*
X71120D01*
Y690818D01*
X45728Y699282D02*
Y707746D01*
Y703514D01*
X71120D01*
Y699282D01*
Y707746D01*
X45728Y720442D02*
Y737370D01*
Y728906D01*
X71120D01*
X45728Y745834D02*
X49960D01*
X58424Y754298D01*
X49960Y762762D01*
X45728D01*
X58424Y754298D02*
X71120D01*
Y796618D02*
X45728D01*
X54192Y805081D01*
X45728Y813546D01*
X71120D01*
X45728Y834705D02*
Y826241D01*
X49960Y822009D01*
X66888D01*
X71120Y826241D01*
Y834705D01*
X66888Y838937D01*
X49960D01*
X45728Y834705D01*
X71120Y847401D02*
X45728D01*
X71120Y864329D01*
X45728D01*
Y872793D02*
Y881257D01*
Y877025D01*
X71120D01*
Y872793D01*
Y881257D01*
X45728Y893953D02*
Y910881D01*
Y902417D01*
X71120D01*
X45728Y932040D02*
Y923577D01*
X49960Y919345D01*
X66888D01*
X71120Y923577D01*
Y932040D01*
X66888Y936273D01*
X49960D01*
X45728Y932040D01*
X71120Y944736D02*
X45728D01*
Y957432D01*
X49960Y961664D01*
X58424D01*
X62656Y957432D01*
Y944736D01*
Y953200D02*
X71120Y961664D01*
D17*
X112068Y393082D02*
X131698Y360310D01*
X15648Y426585D02*
X54184D01*
X112068Y459958D02*
X131698Y493450D01*
X132862Y493422D02*
X152492Y460650D01*
X113193Y459984D02*
X132823Y427212D01*
X132862Y360282D02*
X152492Y393774D01*
X132862Y426545D02*
X152492Y393774D01*
X74696Y393082D02*
X94326Y360310D01*
Y359709D02*
X132862D01*
Y427158D02*
X152492Y460650D01*
X94326Y494023D02*
X132862D01*
X74696Y459958D02*
X94326Y493450D01*
X15687Y426520D02*
X35317Y393748D01*
Y460585D02*
X73854D01*
X35317Y393147D02*
X73854D01*
X15687Y426520D02*
X35317Y460012D01*
X55026Y426520D02*
X74657Y460012D01*
Y393147D02*
X113193D01*
X74657Y460585D02*
X113193D01*
X55026Y426520D02*
X74657Y393748D01*
X113193Y393720D02*
X132823Y427212D01*
D18*
X15240Y113030D02*
Y196850D01*
X153670Y113030D02*
Y196850D01*
X15240D02*
X153670D01*
X15240Y113030D02*
X153670D01*
X33020D02*
Y196850D01*
D19*
X915670Y664210D02*
X928370D01*
X915670Y676910D02*
X928370D01*
Y664210D02*
Y676910D01*
X915670Y664210D02*
Y676910D01*
X769620Y662940D02*
X782320D01*
X769620Y675640D02*
X782320D01*
Y662940D02*
Y675640D01*
X769620Y662940D02*
Y675640D01*
Y643890D02*
X782320D01*
X769620Y656590D02*
X782320D01*
Y643890D02*
Y656590D01*
X769620Y643890D02*
Y656590D01*
Y624840D02*
X782320D01*
X769620Y637540D02*
X782320D01*
Y624840D02*
Y637540D01*
X769620Y624840D02*
Y637540D01*
X915670Y544830D02*
X928370D01*
X915670Y557530D02*
X928370D01*
Y544830D02*
Y557530D01*
X915670Y544830D02*
Y557530D01*
Y684530D02*
X928370D01*
X915670Y697230D02*
X928370D01*
Y684530D02*
Y697230D01*
X915670Y684530D02*
Y697230D01*
Y604520D02*
X928370D01*
X915670Y617220D02*
X928370D01*
Y604520D02*
Y617220D01*
X915670Y604520D02*
Y617220D01*
Y563880D02*
X928370D01*
X915670Y576580D02*
X928370D01*
Y563880D02*
Y576580D01*
X915670Y563880D02*
Y576580D01*
X769620Y684530D02*
X782320D01*
X769620Y697230D02*
X782320D01*
Y684530D02*
Y697230D01*
X769620Y684530D02*
Y697230D01*
X915670Y584200D02*
X928370D01*
X915670Y596900D02*
X928370D01*
Y584200D02*
Y596900D01*
X915670Y584200D02*
Y596900D01*
X769620Y565150D02*
X782320D01*
X769620Y577850D02*
X782320D01*
Y565150D02*
Y577850D01*
X769620Y565150D02*
Y577850D01*
X915670Y643890D02*
X928370D01*
X915670Y656590D02*
X928370D01*
Y643890D02*
Y656590D01*
X915670Y643890D02*
Y656590D01*
X769620Y604520D02*
X782320D01*
X769620Y617220D02*
X782320D01*
Y604520D02*
Y617220D01*
X769620Y604520D02*
Y617220D01*
Y584200D02*
X782320D01*
X769620Y596900D02*
X782320D01*
Y584200D02*
Y596900D01*
X769620Y584200D02*
Y596900D01*
Y544830D02*
X782320D01*
X769620Y557530D02*
X782320D01*
Y544830D02*
Y557530D01*
X769620Y544830D02*
Y557530D01*
X915670Y624840D02*
X928370D01*
X915670Y637540D02*
X928370D01*
Y624840D02*
Y637540D01*
X915670Y624840D02*
Y637540D01*
X38740Y263940D02*
X144140D01*
Y310940D01*
X38740D02*
X144140D01*
X38740Y263940D02*
Y310940D01*
X933998Y266570D02*
X951982D01*
X933998D02*
X933998Y286890D01*
X934252Y345310D02*
X951982Y345310D01*
X934252Y324990D02*
Y345310D01*
X976122Y345310D02*
X988862D01*
Y266570D02*
Y345310D01*
X976122Y266570D02*
X988862D01*
X968415Y511638D02*
X966722Y513331D01*
X963337D01*
X961644Y511638D01*
Y509945D01*
X963337Y508252D01*
X966722D01*
X968415Y506560D01*
Y504867D01*
X966722Y503174D01*
X963337D01*
X961644Y504867D01*
X971801Y513331D02*
Y503174D01*
X975186Y506560D01*
X978572Y503174D01*
Y513331D01*
X981957D02*
Y503174D01*
X987036D01*
X988729Y504867D01*
Y511638D01*
X987036Y513331D01*
X981957D01*
X837184Y942591D02*
Y932434D01*
X842262D01*
X843955Y934127D01*
Y940898D01*
X842262Y942591D01*
X837184D01*
X854112Y940898D02*
X852419Y942591D01*
X849034D01*
X847341Y940898D01*
Y939205D01*
X849034Y937512D01*
X852419D01*
X854112Y935820D01*
Y934127D01*
X852419Y932434D01*
X849034D01*
X847341Y934127D01*
X857497Y940898D02*
X859190Y942591D01*
X862576D01*
X864269Y940898D01*
Y939205D01*
X862576Y937512D01*
X860883D01*
X862576D01*
X864269Y935820D01*
Y934127D01*
X862576Y932434D01*
X859190D01*
X857497Y934127D01*
X874425Y932434D02*
X867654D01*
X874425Y939205D01*
Y940898D01*
X872732Y942591D01*
X869347D01*
X867654Y940898D01*
X877811D02*
X879504Y942591D01*
X882889D01*
X884582Y940898D01*
Y939205D01*
X882889Y937512D01*
X881197D01*
X882889D01*
X884582Y935820D01*
Y934127D01*
X882889Y932434D01*
X879504D01*
X877811Y934127D01*
X887968Y932434D02*
X891353D01*
X889660D01*
Y942591D01*
X887968Y940898D01*
X98809Y399034D02*
Y405805D01*
Y402420D01*
X108966D01*
Y409191D02*
X98809D01*
Y414269D01*
X100502Y415962D01*
X103888D01*
X105580Y414269D01*
Y409191D01*
X108966Y419347D02*
X107273D01*
Y421040D01*
X108966D01*
Y419347D01*
X98809Y427811D02*
X108966D01*
X103888D01*
Y434582D01*
X98809D01*
X108966D01*
X100502Y444739D02*
X98809Y443046D01*
Y439661D01*
X100502Y437968D01*
X107273D01*
X108966Y439661D01*
Y443046D01*
X107273Y444739D01*
X108966Y448125D02*
X98809D01*
X102195Y451510D01*
X98809Y454896D01*
X108966D01*
X251714Y813054D02*
Y823211D01*
X255100Y819825D01*
X258485Y823211D01*
Y813054D01*
X268642Y814747D02*
Y821518D01*
X266949Y823211D01*
X263563D01*
X261871Y821518D01*
Y814747D01*
X263563Y813054D01*
X266949D01*
X265256Y816440D02*
X268642Y813054D01*
X266949D02*
X268642Y814747D01*
X272027Y813054D02*
X275413D01*
X273720D01*
Y823211D01*
X272027Y821518D01*
X280491D02*
X282184Y823211D01*
X285570D01*
X287262Y821518D01*
Y819825D01*
X285570Y818132D01*
X283877D01*
X285570D01*
X287262Y816440D01*
Y814747D01*
X285570Y813054D01*
X282184D01*
X280491Y814747D01*
X297419Y823211D02*
X290648D01*
Y818132D01*
X294034Y819825D01*
X295727D01*
X297419Y818132D01*
Y814747D01*
X295727Y813054D01*
X292341D01*
X290648Y814747D01*
X181359Y292354D02*
X191516D01*
Y297432D01*
X189823Y299125D01*
X183052D01*
X181359Y297432D01*
Y292354D01*
Y302511D02*
X191516D01*
X186438D01*
Y309282D01*
X181359D01*
X191516D01*
X181359Y312667D02*
Y319439D01*
Y316053D01*
X191516D01*
Y329595D02*
Y322824D01*
X184745Y329595D01*
X183052D01*
X181359Y327902D01*
Y324517D01*
X183052Y322824D01*
X191516Y339752D02*
Y332981D01*
X184745Y339752D01*
X183052D01*
X181359Y338059D01*
Y334674D01*
X183052Y332981D01*
X775375Y797811D02*
X768604D01*
Y787654D01*
X775375D01*
X768604Y792732D02*
X771990D01*
X785532Y796118D02*
X783839Y797811D01*
X780453D01*
X778761Y796118D01*
Y794425D01*
X780453Y792732D01*
X783839D01*
X785532Y791040D01*
Y789347D01*
X783839Y787654D01*
X780453D01*
X778761Y789347D01*
X788917Y787654D02*
Y797811D01*
X793996D01*
X795689Y796118D01*
Y792732D01*
X793996Y791040D01*
X788917D01*
X799074Y796118D02*
X800767Y797811D01*
X804153D01*
X805845Y796118D01*
Y794425D01*
X804153Y792732D01*
X805845Y791040D01*
Y789347D01*
X804153Y787654D01*
X800767D01*
X799074Y789347D01*
Y791040D01*
X800767Y792732D01*
X799074Y794425D01*
Y796118D01*
X800767Y792732D02*
X804153D01*
X816002Y787654D02*
X809231D01*
X816002Y794425D01*
Y796118D01*
X814309Y797811D01*
X810924D01*
X809231Y796118D01*
X826159Y797811D02*
X822773Y796118D01*
X819388Y792732D01*
Y789347D01*
X821080Y787654D01*
X824466D01*
X826159Y789347D01*
Y791040D01*
X824466Y792732D01*
X819388D01*
X836316Y797811D02*
X832930Y796118D01*
X829544Y792732D01*
Y789347D01*
X831237Y787654D01*
X834623D01*
X836316Y789347D01*
Y791040D01*
X834623Y792732D01*
X829544D01*
X839701D02*
X846472D01*
X849858Y787654D02*
X853243D01*
X851551D01*
Y797811D01*
X849858Y796118D01*
X865093Y787654D02*
X858322D01*
X865093Y794425D01*
Y796118D01*
X863400Y797811D01*
X860014D01*
X858322Y796118D01*
X875250Y797811D02*
X868478D01*
Y792732D01*
X871864D01*
X868478D01*
Y787654D01*
X420116Y131064D02*
X409959D01*
X413345Y134450D01*
X409959Y137835D01*
X420116D01*
X409959Y141221D02*
X420116D01*
X415038D01*
Y147992D01*
X409959D01*
X420116D01*
X415038Y151377D02*
Y158149D01*
X409959Y161534D02*
Y168305D01*
X411652D01*
X418423Y161534D01*
X420116D01*
Y168305D01*
Y171691D02*
Y175077D01*
Y173384D01*
X409959D01*
X411652Y171691D01*
X418423Y180155D02*
X420116Y181848D01*
Y185233D01*
X418423Y186926D01*
X411652D01*
X409959Y185233D01*
Y181848D01*
X411652Y180155D01*
X413345D01*
X415038Y181848D01*
Y186926D01*
X658114Y1003551D02*
Y993394D01*
X664885D01*
X675042Y1001858D02*
X673349Y1003551D01*
X669964D01*
X668271Y1001858D01*
Y995087D01*
X669964Y993394D01*
X673349D01*
X675042Y995087D01*
X678427Y1003551D02*
Y993394D01*
X683506D01*
X685199Y995087D01*
Y1001858D01*
X683506Y1003551D01*
X678427D01*
X423164Y995934D02*
Y1006091D01*
X428242D01*
X429935Y1004398D01*
Y1001012D01*
X428242Y999320D01*
X423164D01*
X433321Y995934D02*
Y1006091D01*
X436706Y1002705D01*
X440092Y1006091D01*
Y995934D01*
X450249D02*
X443477D01*
X450249Y1002705D01*
Y1004398D01*
X448556Y1006091D01*
X445170D01*
X443477Y1004398D01*
X453634Y995934D02*
Y997627D01*
X455327D01*
Y995934D01*
X453634D01*
X468869Y1006091D02*
X462098D01*
Y1001012D01*
X465484Y1002705D01*
X467177D01*
X468869Y1001012D01*
Y997627D01*
X467177Y995934D01*
X463791D01*
X462098Y997627D01*
X489183Y1004398D02*
X487490Y1006091D01*
X484104D01*
X482412Y1004398D01*
Y1002705D01*
X484104Y1001012D01*
X487490D01*
X489183Y999320D01*
Y997627D01*
X487490Y995934D01*
X484104D01*
X482412Y997627D01*
X499339Y1006091D02*
X492568D01*
Y995934D01*
X499339D01*
X492568Y1001012D02*
X495954D01*
X502725Y995934D02*
Y1006091D01*
X509496Y995934D01*
Y1006091D01*
X519653Y1004398D02*
X517960Y1006091D01*
X514575D01*
X512882Y1004398D01*
Y1002705D01*
X514575Y1001012D01*
X517960D01*
X519653Y999320D01*
Y997627D01*
X517960Y995934D01*
X514575D01*
X512882Y997627D01*
X528117Y1006091D02*
X524731D01*
X523038Y1004398D01*
Y997627D01*
X524731Y995934D01*
X528117D01*
X529810Y997627D01*
Y1004398D01*
X528117Y1006091D01*
X533195Y995934D02*
Y1006091D01*
X538274D01*
X539966Y1004398D01*
Y1001012D01*
X538274Y999320D01*
X533195D01*
X536581D02*
X539966Y995934D01*
D20*
X575310Y782320D02*
Y783590D01*
X552450D02*
X575310D01*
X552450Y782320D02*
Y783590D01*
X575310Y765810D02*
Y767080D01*
X552450Y765810D02*
X575310D01*
X552450D02*
Y767080D01*
X610870Y765810D02*
Y767080D01*
Y765810D02*
X633730D01*
Y767080D01*
X610870Y782320D02*
Y783590D01*
X633730D01*
Y782320D02*
Y783590D01*
D21*
X534670Y321310D02*
X651510D01*
X534670Y356870D02*
Y369570D01*
Y321310D02*
Y334010D01*
X651510Y321310D02*
Y334010D01*
X581660Y345440D02*
X586740D01*
Y337820D02*
Y353060D01*
X590550Y332740D02*
Y358140D01*
Y332740D02*
X595630D01*
Y358140D01*
X590550D02*
X595630D01*
X599440Y337820D02*
Y353060D01*
Y345440D02*
X604520D01*
X534670Y369570D02*
X651510D01*
Y356870D02*
Y369570D01*
X958970Y284955D02*
X963970Y277955D01*
X968970Y284955D01*
X958970D02*
X968970D01*
X957720Y291455D02*
Y298955D01*
X950220Y298955D02*
X957720Y298955D01*
X950220Y291455D02*
Y298955D01*
Y291455D02*
X957720D01*
D22*
X71889Y410718D02*
X92202D01*
Y420875D01*
X88816Y424260D01*
X85431D01*
X82045Y420875D01*
Y410718D01*
Y420875D01*
X78660Y424260D01*
X75274D01*
X71889Y420875D01*
Y410718D01*
Y431031D02*
X92202D01*
X85431D01*
X71889Y444574D01*
X82045Y434417D01*
X92202Y444574D01*
D23*
X812800Y171450D02*
D03*
M02*
