G04*
G04 #@! TF.GenerationSoftware,Altium Limited,Altium Designer,24.4.1 (13)*
G04*
G04 Layer_Physical_Order=1*
G04 Layer_Color=255*
%FSLAX44Y44*%
%MOMM*%
G71*
G04*
G04 #@! TF.SameCoordinates,999ADBB1-789E-4D5B-A825-673993AB2B7E*
G04*
G04*
G04 #@! TF.FilePolarity,Positive*
G04*
G01*
G75*
%ADD10C,0.2540*%
%ADD12C,0.2032*%
%ADD15C,0.5080*%
%ADD22C,0.3048*%
%ADD24R,1.0000X0.9500*%
%ADD25R,1.2700X1.3970*%
%ADD26R,0.3000X1.7000*%
%ADD27R,1.7000X0.3000*%
G04:AMPARAMS|DCode=28|XSize=5.5mm|YSize=1.5mm|CornerRadius=0.1875mm|HoleSize=0mm|Usage=FLASHONLY|Rotation=0.000|XOffset=0mm|YOffset=0mm|HoleType=Round|Shape=RoundedRectangle|*
%AMROUNDEDRECTD28*
21,1,5.5000,1.1250,0,0,0.0*
21,1,5.1250,1.5000,0,0,0.0*
1,1,0.3750,2.5625,-0.5625*
1,1,0.3750,-2.5625,-0.5625*
1,1,0.3750,-2.5625,0.5625*
1,1,0.3750,2.5625,0.5625*
%
%ADD28ROUNDEDRECTD28*%
%ADD29R,1.7780X0.2540*%
%ADD30R,1.9000X1.9000*%
%ADD31R,0.8000X1.2000*%
%ADD57C,0.6350*%
%ADD58O,1.3000X1.5000*%
%ADD59R,1.3000X1.5000*%
%ADD60R,1.3700X1.3700*%
%ADD61C,1.3700*%
%ADD62C,1.7780*%
%ADD63C,5.0000*%
%ADD64R,2.1000X2.1000*%
%ADD65C,2.1000*%
%ADD66R,2.5400X4.0640*%
%ADD67R,4.0640X2.5400*%
%ADD68O,1.0160X1.5240*%
%ADD69C,1.8600*%
%ADD70R,1.8600X1.8600*%
%ADD71C,1.5000*%
%ADD72R,1.5000X1.5000*%
%ADD73R,2.0000X2.0000*%
%ADD74C,0.5080*%
G36*
X429913Y424591D02*
X430040Y424505D01*
X430185Y424429D01*
X430349Y424363D01*
X430530Y424307D01*
X430731Y424261D01*
X430949Y424226D01*
X431185Y424200D01*
X431714Y424180D01*
Y421640D01*
X431441Y421635D01*
X430949Y421594D01*
X430731Y421559D01*
X430530Y421513D01*
X430349Y421457D01*
X430185Y421391D01*
X430040Y421315D01*
X429913Y421228D01*
X429804Y421132D01*
Y424688D01*
X429913Y424591D01*
D02*
G37*
G36*
X503646Y403352D02*
X503584Y403400D01*
X503497Y403443D01*
X503385Y403481D01*
X503248Y403515D01*
X503086Y403543D01*
X502688Y403583D01*
X502190Y403604D01*
X501904Y403606D01*
Y406654D01*
X502190Y406656D01*
X503086Y406717D01*
X503248Y406745D01*
X503385Y406778D01*
X503497Y406817D01*
X503584Y406860D01*
X503646Y406908D01*
Y403352D01*
D02*
G37*
G36*
X414626Y406860D02*
X414713Y406817D01*
X414825Y406778D01*
X414962Y406745D01*
X415124Y406717D01*
X415522Y406677D01*
X416020Y406656D01*
X416306Y406654D01*
Y403606D01*
X416020Y403604D01*
X415124Y403543D01*
X414962Y403515D01*
X414825Y403481D01*
X414713Y403443D01*
X414626Y403400D01*
X414564Y403352D01*
Y406908D01*
X414626Y406860D01*
D02*
G37*
G36*
X471896Y391922D02*
X471834Y391970D01*
X471747Y392013D01*
X471635Y392052D01*
X471498Y392085D01*
X471336Y392113D01*
X470938Y392153D01*
X470440Y392174D01*
X470154Y392176D01*
Y395224D01*
X470440Y395227D01*
X471336Y395288D01*
X471498Y395315D01*
X471635Y395349D01*
X471747Y395387D01*
X471834Y395430D01*
X471896Y395478D01*
Y391922D01*
D02*
G37*
G36*
X442613Y386492D02*
X442740Y386405D01*
X442885Y386329D01*
X443049Y386263D01*
X443230Y386207D01*
X443430Y386161D01*
X443649Y386126D01*
X443885Y386100D01*
X444414Y386080D01*
Y383540D01*
X444141Y383535D01*
X443649Y383494D01*
X443430Y383459D01*
X443230Y383413D01*
X443049Y383357D01*
X442885Y383291D01*
X442740Y383215D01*
X442613Y383129D01*
X442504Y383032D01*
Y386588D01*
X442613Y386492D01*
D02*
G37*
G36*
X413007Y379190D02*
X413068Y378294D01*
X413095Y378132D01*
X413129Y377995D01*
X413167Y377883D01*
X413210Y377796D01*
X413258Y377734D01*
X409702D01*
X409750Y377796D01*
X409793Y377883D01*
X409832Y377995D01*
X409865Y378132D01*
X409893Y378294D01*
X409933Y378692D01*
X409953Y379190D01*
X409956Y379476D01*
X413004D01*
X413007Y379190D01*
D02*
G37*
G36*
X264429Y280195D02*
X264550Y278953D01*
X264655Y278449D01*
X264790Y278022D01*
X264956Y277673D01*
X265152Y277401D01*
X265378Y277207D01*
X265633Y277091D01*
X265919Y277052D01*
X259861D01*
X260147Y277091D01*
X260403Y277207D01*
X260628Y277401D01*
X260824Y277673D01*
X260990Y278022D01*
X261125Y278449D01*
X261231Y278953D01*
X261306Y279535D01*
X261351Y280195D01*
X261366Y280932D01*
X264414D01*
X264429Y280195D01*
D02*
G37*
G36*
X124147Y287816D02*
X124835Y287249D01*
X125546Y286749D01*
X126279Y286316D01*
X127036Y285949D01*
X127815Y285649D01*
X128617Y285415D01*
X129443Y285248D01*
X130290Y285148D01*
X131161Y285115D01*
Y278765D01*
X130290Y278732D01*
X129443Y278632D01*
X128617Y278465D01*
X127815Y278231D01*
X127036Y277931D01*
X126279Y277564D01*
X125546Y277131D01*
X124835Y276631D01*
X124147Y276064D01*
X123482Y275430D01*
Y288450D01*
X124147Y287816D01*
D02*
G37*
G36*
X97196Y274519D02*
X96521Y273738D01*
X95925Y272955D01*
X95409Y272169D01*
X94972Y271382D01*
X94615Y270592D01*
X94337Y269800D01*
X94139Y269007D01*
X94020Y268211D01*
X93980Y267414D01*
X88900D01*
X88860Y268211D01*
X88741Y269007D01*
X88543Y269800D01*
X88265Y270592D01*
X87907Y271382D01*
X87471Y272169D01*
X86955Y272955D01*
X86359Y273738D01*
X85684Y274519D01*
X84930Y275299D01*
X97950D01*
X97196Y274519D01*
D02*
G37*
G36*
X240677Y282149D02*
X240974Y278335D01*
X241110Y277607D01*
X241271Y276969D01*
X241456Y276421D01*
X241666Y275964D01*
X241901Y275597D01*
X233889D01*
Y264369D01*
X233401Y264932D01*
X232850Y265436D01*
X232234Y265882D01*
X231555Y266267D01*
X230811Y266593D01*
X230003Y266860D01*
X229131Y267068D01*
X228195Y267216D01*
X227195Y267305D01*
X226131Y267335D01*
Y273685D01*
X227195Y273715D01*
X228195Y273804D01*
X229131Y273952D01*
X230003Y274160D01*
X230811Y274427D01*
X231555Y274753D01*
X232234Y275138D01*
X232850Y275583D01*
X233349Y276040D01*
X233524Y276421D01*
X233710Y276969D01*
X233870Y277607D01*
X234006Y278335D01*
X234204Y280062D01*
X234303Y282149D01*
X234315Y283328D01*
X240665D01*
X240677Y282149D01*
D02*
G37*
G36*
X316475Y264915D02*
X316157Y264365D01*
X315877Y263774D01*
X315634Y263142D01*
X315428Y262468D01*
X315259Y261752D01*
X315128Y260996D01*
X315035Y260197D01*
X314960Y258477D01*
X309880D01*
X309861Y259358D01*
X309712Y260996D01*
X309581Y261752D01*
X309412Y262468D01*
X309207Y263142D01*
X308963Y263774D01*
X308683Y264365D01*
X308365Y264915D01*
X308009Y265423D01*
X316831D01*
X316475Y264915D01*
D02*
G37*
G36*
X322607Y212787D02*
X322688Y212105D01*
X322824Y211440D01*
X323014Y210793D01*
X323257Y210164D01*
X323556Y209553D01*
X323908Y208960D01*
X324314Y208384D01*
X324775Y207826D01*
X325290Y207286D01*
X314790D01*
X315305Y207826D01*
X315766Y208384D01*
X316172Y208960D01*
X316524Y209553D01*
X316822Y210164D01*
X317066Y210793D01*
X317256Y211440D01*
X317392Y212105D01*
X317473Y212787D01*
X317500Y213487D01*
X322580D01*
X322607Y212787D01*
D02*
G37*
G36*
X325936Y206665D02*
X326494Y206204D01*
X327070Y205798D01*
X327663Y205446D01*
X328274Y205147D01*
X328903Y204904D01*
X329550Y204714D01*
X330215Y204578D01*
X330897Y204497D01*
X331597Y204470D01*
Y199390D01*
X330897Y199363D01*
X330215Y199282D01*
X329550Y199146D01*
X328903Y198956D01*
X328274Y198713D01*
X327663Y198414D01*
X327070Y198062D01*
X326494Y197656D01*
X325936Y197195D01*
X325396Y196680D01*
Y207180D01*
X325936Y206665D01*
D02*
G37*
G36*
X314684Y196680D02*
X314144Y197195D01*
X313586Y197656D01*
X313010Y198062D01*
X312417Y198414D01*
X311806Y198713D01*
X311177Y198956D01*
X310530Y199146D01*
X309865Y199282D01*
X309183Y199363D01*
X308483Y199390D01*
Y204470D01*
X309183Y204497D01*
X309865Y204578D01*
X310530Y204714D01*
X311177Y204904D01*
X311806Y205147D01*
X312417Y205446D01*
X313010Y205798D01*
X313586Y206204D01*
X314144Y206665D01*
X314684Y207180D01*
Y196680D01*
D02*
G37*
G36*
X259119Y201810D02*
X259235Y200905D01*
X259429Y200031D01*
X259701Y199188D01*
X260051Y198375D01*
X260478Y197593D01*
X260983Y196842D01*
X261565Y196122D01*
X262225Y195431D01*
X262963Y194772D01*
X249998Y195118D01*
X250758Y195730D01*
X251438Y196375D01*
X252039Y197054D01*
X252559Y197766D01*
X252999Y198512D01*
X253360Y199291D01*
X253640Y200104D01*
X253840Y200951D01*
X253960Y201831D01*
X254000Y202745D01*
X259080D01*
X259119Y201810D01*
D02*
G37*
G36*
X94005Y183148D02*
X94082Y182280D01*
X94209Y181513D01*
X94386Y180849D01*
X94615Y180287D01*
X94894Y179827D01*
X95225Y179469D01*
X95606Y179214D01*
X96037Y179060D01*
X96520Y179009D01*
X86360D01*
X86843Y179060D01*
X87274Y179214D01*
X87655Y179469D01*
X87986Y179827D01*
X88265Y180287D01*
X88494Y180849D01*
X88671Y181513D01*
X88798Y182280D01*
X88875Y183148D01*
X88900Y184119D01*
X93980D01*
X94005Y183148D01*
D02*
G37*
G36*
X227007Y176157D02*
X226467Y175966D01*
X225991Y175649D01*
X225578Y175205D01*
X225229Y174633D01*
X224943Y173934D01*
X224721Y173109D01*
X224562Y172157D01*
X224467Y171077D01*
X224435Y169870D01*
X218085D01*
X218053Y171077D01*
X217958Y172157D01*
X217799Y173109D01*
X217577Y173934D01*
X217291Y174633D01*
X216942Y175205D01*
X216529Y175649D01*
X216053Y175966D01*
X215513Y176157D01*
X214910Y176220D01*
X227610D01*
X227007Y176157D01*
D02*
G37*
G36*
X324896Y170749D02*
X324543Y170285D01*
X324232Y169785D01*
X323962Y169247D01*
X323734Y168672D01*
X323547Y168060D01*
X323402Y167410D01*
X323298Y166722D01*
X323236Y165998D01*
X323215Y165235D01*
X316865D01*
X316844Y165998D01*
X316782Y166722D01*
X316678Y167410D01*
X316533Y168060D01*
X316346Y168672D01*
X316118Y169247D01*
X315848Y169785D01*
X315537Y170285D01*
X315184Y170749D01*
X314790Y171174D01*
X325290D01*
X324896Y170749D01*
D02*
G37*
G36*
X224499Y167069D02*
X224689Y165989D01*
X225007Y165037D01*
X225451Y164211D01*
X226022Y163512D01*
X226721Y162941D01*
X227547Y162496D01*
X228499Y162179D01*
X229578Y161989D01*
X230785Y161925D01*
X227610Y155575D01*
X221260D01*
X211735Y161925D01*
X211735Y161925D01*
X211735D01*
X211735Y161925D01*
X212941Y161989D01*
X214021Y162179D01*
X214974Y162496D01*
X215799Y162941D01*
X216497Y163512D01*
X217069Y164211D01*
X217514Y165037D01*
X217831Y165989D01*
X218022Y167069D01*
X218085Y168275D01*
X218085D01*
Y168275D01*
X224435D01*
X224499Y167069D01*
D02*
G37*
G36*
X104130Y163347D02*
X104284Y162916D01*
X104539Y162535D01*
X104897Y162204D01*
X105357Y161925D01*
X105919Y161696D01*
X106583Y161519D01*
X107350Y161392D01*
X108218Y161315D01*
X109190Y161290D01*
Y156210D01*
X108218Y156185D01*
X107350Y156108D01*
X106583Y155981D01*
X105919Y155804D01*
X105357Y155575D01*
X104897Y155296D01*
X104539Y154965D01*
X104284Y154584D01*
X104130Y154153D01*
X104079Y153670D01*
Y163830D01*
X104130Y163347D01*
D02*
G37*
G36*
X167643Y164497D02*
X167834Y163957D01*
X168153Y163481D01*
X168600Y163068D01*
X169174Y162719D01*
X169876Y162433D01*
X170706Y162211D01*
X171663Y162052D01*
X172747Y161957D01*
X173960Y161925D01*
Y155575D01*
X172747Y155543D01*
X171663Y155448D01*
X170706Y155289D01*
X169876Y155067D01*
X169174Y154781D01*
X168600Y154432D01*
X168153Y154019D01*
X167834Y153543D01*
X167643Y153003D01*
X167579Y152400D01*
Y165100D01*
X167643Y164497D01*
D02*
G37*
G36*
X457809Y155504D02*
X458446Y154986D01*
X459109Y154529D01*
X459799Y154132D01*
X460515Y153797D01*
X461257Y153523D01*
X462025Y153309D01*
X462820Y153157D01*
X463641Y153066D01*
X464488Y153035D01*
Y146685D01*
X463641Y146655D01*
X462820Y146563D01*
X462025Y146411D01*
X461257Y146197D01*
X460515Y145923D01*
X459799Y145588D01*
X459109Y145191D01*
X458446Y144734D01*
X457809Y144216D01*
X457199Y143637D01*
Y156083D01*
X457809Y155504D01*
D02*
G37*
G36*
X456494Y142901D02*
X455976Y142264D01*
X455518Y141601D01*
X455122Y140911D01*
X454787Y140195D01*
X454513Y139453D01*
X454299Y138685D01*
X454147Y137890D01*
X454055Y137069D01*
X454025Y136222D01*
X447675D01*
X447645Y137069D01*
X447553Y137890D01*
X447401Y138685D01*
X447187Y139453D01*
X446913Y140195D01*
X446578Y140911D01*
X446181Y141601D01*
X445724Y142264D01*
X445206Y142901D01*
X444627Y143511D01*
X457073D01*
X456494Y142901D01*
D02*
G37*
G36*
X314178Y97122D02*
X314718Y96697D01*
X315284Y96323D01*
X315875Y96000D01*
X316493Y95728D01*
X317136Y95506D01*
X317804Y95336D01*
X318499Y95216D01*
X319219Y95147D01*
X319965Y95130D01*
X312540Y87705D01*
X312523Y88451D01*
X312454Y89171D01*
X312334Y89866D01*
X312164Y90534D01*
X311942Y91178D01*
X311670Y91795D01*
X311347Y92386D01*
X310973Y92952D01*
X310548Y93492D01*
X310072Y94006D01*
X313664Y97598D01*
X314178Y97122D01*
D02*
G37*
G36*
X259013Y91749D02*
X259098Y90937D01*
X259241Y90179D01*
X259441Y89474D01*
X259697Y88823D01*
X260011Y88224D01*
X260382Y87680D01*
X260810Y87189D01*
X261295Y86751D01*
X261837Y86367D01*
X250998Y86557D01*
X251551Y86920D01*
X252045Y87337D01*
X252480Y87809D01*
X252858Y88333D01*
X253178Y88912D01*
X253439Y89545D01*
X253643Y90232D01*
X253788Y90972D01*
X253875Y91766D01*
X253904Y92614D01*
X258984D01*
X259013Y91749D01*
D02*
G37*
G36*
X325936Y92365D02*
X326494Y91904D01*
X327070Y91498D01*
X327663Y91146D01*
X328274Y90848D01*
X328903Y90604D01*
X329550Y90414D01*
X330215Y90278D01*
X330897Y90197D01*
X331597Y90170D01*
Y85090D01*
X330897Y85063D01*
X330215Y84982D01*
X329550Y84846D01*
X328903Y84656D01*
X328274Y84412D01*
X327663Y84114D01*
X327070Y83762D01*
X326494Y83356D01*
X325936Y82895D01*
X325396Y82380D01*
Y92880D01*
X325936Y92365D01*
D02*
G37*
G36*
X227007Y66937D02*
X226467Y66747D01*
X225991Y66429D01*
X225578Y65985D01*
X225229Y65413D01*
X224943Y64714D01*
X224721Y63889D01*
X224562Y62937D01*
X224467Y61857D01*
X224435Y60651D01*
X218085D01*
X218053Y61857D01*
X217958Y62937D01*
X217799Y63889D01*
X217577Y64714D01*
X217291Y65413D01*
X216942Y65985D01*
X216529Y66429D01*
X216053Y66747D01*
X215513Y66937D01*
X214910Y67000D01*
X227610D01*
X227007Y66937D01*
D02*
G37*
G36*
X325821Y67086D02*
X326284Y66733D01*
X326785Y66422D01*
X327323Y66152D01*
X327898Y65924D01*
X328510Y65737D01*
X329160Y65592D01*
X329848Y65488D01*
X330573Y65426D01*
X331335Y65405D01*
Y59055D01*
X330573Y59034D01*
X329848Y58972D01*
X329160Y58868D01*
X328510Y58723D01*
X327898Y58536D01*
X327323Y58308D01*
X326785Y58038D01*
X326284Y57727D01*
X325821Y57374D01*
X325396Y56980D01*
Y67480D01*
X325821Y67086D01*
D02*
G37*
G36*
X324896Y56448D02*
X324543Y55985D01*
X324232Y55485D01*
X323962Y54948D01*
X323734Y54372D01*
X323547Y53760D01*
X323402Y53110D01*
X323298Y52422D01*
X323236Y51698D01*
X323215Y50935D01*
X316865D01*
X316844Y51698D01*
X316782Y52422D01*
X316678Y53110D01*
X316533Y53760D01*
X316346Y54372D01*
X316118Y54948D01*
X315848Y55485D01*
X315537Y55985D01*
X315184Y56448D01*
X314790Y56874D01*
X325290D01*
X324896Y56448D01*
D02*
G37*
G36*
X633186Y490982D02*
X633031Y491127D01*
X632865Y491256D01*
X632689Y491371D01*
X632501Y491470D01*
X632303Y491553D01*
X632094Y491622D01*
X631874Y491675D01*
X631643Y491713D01*
X631401Y491736D01*
X631148Y491744D01*
Y493776D01*
X631401Y493784D01*
X631643Y493806D01*
X631874Y493845D01*
X632094Y493898D01*
X632303Y493966D01*
X632501Y494050D01*
X632689Y494149D01*
X632865Y494264D01*
X633031Y494393D01*
X633186Y494538D01*
Y490982D01*
D02*
G37*
G36*
X625566Y480822D02*
X625411Y480967D01*
X625246Y481096D01*
X625069Y481211D01*
X624882Y481310D01*
X624683Y481394D01*
X624474Y481462D01*
X624254Y481515D01*
X624023Y481553D01*
X623781Y481576D01*
X623528Y481584D01*
Y483616D01*
X623781Y483624D01*
X624023Y483647D01*
X624254Y483685D01*
X624474Y483738D01*
X624683Y483806D01*
X624882Y483890D01*
X625069Y483989D01*
X625246Y484104D01*
X625411Y484233D01*
X625566Y484378D01*
Y480822D01*
D02*
G37*
G36*
X617697Y470958D02*
X617619Y471047D01*
X617520Y471126D01*
X617399Y471196D01*
X617257Y471256D01*
X617093Y471308D01*
X616908Y471349D01*
X616701Y471382D01*
X616472Y471405D01*
X615950Y471424D01*
Y473456D01*
X616222Y473461D01*
X616701Y473498D01*
X616908Y473531D01*
X617093Y473572D01*
X617257Y473624D01*
X617399Y473684D01*
X617520Y473754D01*
X617619Y473833D01*
X617697Y473922D01*
Y470958D01*
D02*
G37*
G36*
X621692Y474110D02*
X621819Y474023D01*
X621964Y473947D01*
X622127Y473880D01*
X622309Y473824D01*
X622509Y473778D01*
X622727Y473742D01*
X622964Y473716D01*
X623492Y473696D01*
X623475Y471156D01*
X623202Y471151D01*
X622710Y471110D01*
X622492Y471075D01*
X622291Y471030D01*
X622109Y470974D01*
X621946Y470909D01*
X621800Y470833D01*
X621673Y470747D01*
X621564Y470652D01*
X621584Y474208D01*
X621692Y474110D01*
D02*
G37*
G36*
X611589Y466819D02*
X611776Y466664D01*
X611966Y466527D01*
X612160Y466410D01*
X612356Y466310D01*
X612556Y466229D01*
X612758Y466167D01*
X612964Y466123D01*
X613173Y466097D01*
X613385Y466090D01*
X610870Y463575D01*
X610863Y463787D01*
X610838Y463996D01*
X610793Y464202D01*
X610731Y464404D01*
X610650Y464604D01*
X610550Y464800D01*
X610433Y464994D01*
X610296Y465184D01*
X610141Y465371D01*
X609968Y465555D01*
X611405Y466992D01*
X611589Y466819D01*
D02*
G37*
G36*
X603969Y456659D02*
X604156Y456504D01*
X604346Y456367D01*
X604540Y456250D01*
X604736Y456150D01*
X604936Y456069D01*
X605138Y456007D01*
X605344Y455962D01*
X605553Y455937D01*
X605765Y455930D01*
X603250Y453415D01*
X603243Y453627D01*
X603218Y453836D01*
X603173Y454042D01*
X603111Y454244D01*
X603030Y454444D01*
X602930Y454640D01*
X602812Y454834D01*
X602676Y455024D01*
X602521Y455211D01*
X602348Y455395D01*
X603785Y456832D01*
X603969Y456659D01*
D02*
G37*
G36*
X607713Y455071D02*
X607840Y454985D01*
X607985Y454909D01*
X608148Y454843D01*
X608330Y454787D01*
X608531Y454741D01*
X608749Y454706D01*
X608985Y454680D01*
X609514Y454660D01*
Y452120D01*
X609240Y452115D01*
X608749Y452074D01*
X608531Y452039D01*
X608330Y451993D01*
X608148Y451937D01*
X607985Y451871D01*
X607840Y451795D01*
X607713Y451708D01*
X607604Y451612D01*
Y455168D01*
X607713Y455071D01*
D02*
G37*
G36*
X597662Y446463D02*
X597806Y446344D01*
X597996Y446208D01*
X598190Y446090D01*
X598386Y445990D01*
X598586Y445909D01*
X598788Y445847D01*
X598994Y445802D01*
X599203Y445777D01*
X599415Y445770D01*
X598909Y445265D01*
X599441Y444754D01*
X597916Y443229D01*
X597895Y443267D01*
X597830Y443347D01*
X597571Y443630D01*
X597424Y443780D01*
X596900Y443255D01*
X596893Y443467D01*
X596867Y443676D01*
X596823Y443882D01*
X596761Y444084D01*
X596680Y444284D01*
X596580Y444480D01*
X596463Y444674D01*
X596326Y444864D01*
X596171Y445051D01*
X596091Y445137D01*
X595763Y445470D01*
X597200Y446907D01*
X597662Y446463D01*
D02*
G37*
G36*
X601316Y444960D02*
X601403Y444917D01*
X601515Y444879D01*
X601652Y444845D01*
X601814Y444818D01*
X602212Y444777D01*
X602710Y444757D01*
X602996Y444754D01*
Y441706D01*
X602710Y441703D01*
X601814Y441642D01*
X601652Y441615D01*
X601515Y441581D01*
X601403Y441543D01*
X601316Y441500D01*
X601254Y441452D01*
Y445008D01*
X601316Y444960D01*
D02*
G37*
G36*
X589999Y436339D02*
X590186Y436184D01*
X590376Y436048D01*
X590570Y435930D01*
X590766Y435830D01*
X590966Y435749D01*
X591168Y435687D01*
X591374Y435643D01*
X591583Y435617D01*
X591795Y435610D01*
X589280Y433095D01*
X589273Y433307D01*
X589248Y433516D01*
X589203Y433722D01*
X589141Y433924D01*
X589060Y434124D01*
X588960Y434320D01*
X588843Y434514D01*
X588706Y434704D01*
X588551Y434891D01*
X588378Y435075D01*
X589815Y436512D01*
X589999Y436339D01*
D02*
G37*
G36*
X593743Y434752D02*
X593870Y434665D01*
X594015Y434589D01*
X594179Y434523D01*
X594360Y434467D01*
X594561Y434421D01*
X594779Y434386D01*
X595015Y434360D01*
X595544Y434340D01*
Y431800D01*
X595271Y431795D01*
X594779Y431754D01*
X594561Y431719D01*
X594360Y431673D01*
X594179Y431617D01*
X594015Y431551D01*
X593870Y431475D01*
X593743Y431389D01*
X593634Y431292D01*
Y434848D01*
X593743Y434752D01*
D02*
G37*
G36*
X582379Y426179D02*
X582566Y426024D01*
X582756Y425887D01*
X582950Y425770D01*
X583146Y425670D01*
X583346Y425589D01*
X583548Y425527D01*
X583754Y425482D01*
X583963Y425457D01*
X584175Y425450D01*
X581660Y422935D01*
X581653Y423147D01*
X581628Y423356D01*
X581583Y423562D01*
X581521Y423764D01*
X581440Y423964D01*
X581340Y424160D01*
X581222Y424354D01*
X581086Y424544D01*
X580931Y424731D01*
X580758Y424915D01*
X582195Y426352D01*
X582379Y426179D01*
D02*
G37*
G36*
X586123Y424591D02*
X586250Y424505D01*
X586395Y424429D01*
X586558Y424363D01*
X586740Y424307D01*
X586940Y424261D01*
X587159Y424226D01*
X587396Y424200D01*
X587924Y424180D01*
Y421640D01*
X587650Y421635D01*
X587159Y421594D01*
X586940Y421559D01*
X586740Y421513D01*
X586558Y421457D01*
X586395Y421391D01*
X586250Y421315D01*
X586123Y421228D01*
X586014Y421132D01*
Y424688D01*
X586123Y424591D01*
D02*
G37*
G36*
X574759Y416019D02*
X574946Y415864D01*
X575136Y415728D01*
X575330Y415610D01*
X575526Y415510D01*
X575726Y415429D01*
X575928Y415367D01*
X576134Y415322D01*
X576343Y415297D01*
X576555Y415290D01*
X574040Y412775D01*
X574033Y412987D01*
X574007Y413196D01*
X573963Y413402D01*
X573901Y413604D01*
X573820Y413804D01*
X573720Y414000D01*
X573602Y414194D01*
X573466Y414384D01*
X573311Y414571D01*
X573138Y414755D01*
X574575Y416192D01*
X574759Y416019D01*
D02*
G37*
G36*
X506066Y347170D02*
X506153Y347127D01*
X506265Y347089D01*
X506402Y347055D01*
X506564Y347028D01*
X506962Y346987D01*
X507460Y346967D01*
X507746Y346964D01*
Y343916D01*
X507460Y343913D01*
X506564Y343853D01*
X506402Y343825D01*
X506265Y343792D01*
X506153Y343753D01*
X506066Y343710D01*
X506004Y343662D01*
Y347218D01*
X506066Y347170D01*
D02*
G37*
G36*
X811276Y221234D02*
X811273Y221520D01*
X811212Y222416D01*
X811185Y222578D01*
X811152Y222715D01*
X811113Y222827D01*
X811070Y222914D01*
X811022Y222976D01*
X814578D01*
X814530Y222914D01*
X814487Y222827D01*
X814448Y222715D01*
X814415Y222578D01*
X814388Y222416D01*
X814347Y222018D01*
X814326Y221520D01*
X814324Y221234D01*
X811276D01*
D02*
G37*
G36*
X970415Y108585D02*
X969444Y108560D01*
X968575Y108483D01*
X967808Y108356D01*
X967144Y108179D01*
X966582Y107950D01*
X966122Y107671D01*
X965764Y107340D01*
X965509Y106959D01*
X965355Y106528D01*
X965304Y106045D01*
Y116205D01*
X965355Y115722D01*
X965509Y115291D01*
X965764Y114910D01*
X966122Y114579D01*
X966582Y114300D01*
X967144Y114071D01*
X967808Y113894D01*
X968575Y113767D01*
X969444Y113690D01*
X970415Y113665D01*
Y108585D01*
D02*
G37*
G36*
X908375Y251905D02*
X908388Y251416D01*
X908426Y250979D01*
X908489Y250594D01*
X908578Y250259D01*
X908693Y249977D01*
X908832Y249745D01*
X908997Y249565D01*
X909188Y249437D01*
X909404Y249360D01*
X909645Y249334D01*
X904565D01*
X904806Y249360D01*
X905022Y249437D01*
X905213Y249565D01*
X905378Y249745D01*
X905518Y249977D01*
X905632Y250259D01*
X905721Y250594D01*
X905784Y250979D01*
X905822Y251416D01*
X905835Y251905D01*
X908375D01*
D02*
G37*
G36*
X910828Y298170D02*
X910554Y298164D01*
X910304Y298144D01*
X910077Y298111D01*
X909873Y298066D01*
X909693Y298007D01*
X909536Y297936D01*
X909403Y297851D01*
X909293Y297754D01*
X909206Y297643D01*
X909143Y297520D01*
X907757Y300794D01*
X907811Y300778D01*
X907890Y300764D01*
X907996Y300751D01*
X908469Y300723D01*
X909463Y300710D01*
X910828Y298170D01*
D02*
G37*
G36*
X680974Y346964D02*
X681260Y346967D01*
X682156Y347028D01*
X682318Y347055D01*
X682455Y347089D01*
X682567Y347127D01*
X682654Y347170D01*
X682716Y347218D01*
Y343662D01*
X682654Y343710D01*
X682567Y343753D01*
X682455Y343792D01*
X682318Y343825D01*
X682156Y343853D01*
X681758Y343893D01*
X681260Y343913D01*
X680974Y343916D01*
Y346964D01*
D02*
G37*
G36*
X683006Y341884D02*
X683003Y342170D01*
X682943Y343066D01*
X682915Y343228D01*
X682881Y343365D01*
X682843Y343477D01*
X682800Y343564D01*
X682752Y343626D01*
X686308D01*
X686260Y343564D01*
X686217Y343477D01*
X686179Y343365D01*
X686145Y343228D01*
X686117Y343066D01*
X686077Y342668D01*
X686057Y342170D01*
X686054Y341884D01*
X683006D01*
D02*
G37*
G36*
X727624Y405130D02*
X727350Y405125D01*
X726859Y405084D01*
X726640Y405049D01*
X726440Y405003D01*
X726258Y404947D01*
X726095Y404881D01*
X725950Y404805D01*
X725823Y404719D01*
X725714Y404622D01*
Y408178D01*
X725823Y408082D01*
X725950Y407995D01*
X726095Y407919D01*
X726258Y407853D01*
X726440Y407797D01*
X726640Y407751D01*
X726859Y407716D01*
X727095Y407690D01*
X727624Y407670D01*
Y405130D01*
D02*
G37*
G36*
X904240Y321396D02*
X904235Y321670D01*
X904194Y322161D01*
X904159Y322379D01*
X904113Y322580D01*
X904057Y322761D01*
X903991Y322925D01*
X903915Y323070D01*
X903829Y323197D01*
X903732Y323306D01*
X907288D01*
X907191Y323197D01*
X907105Y323070D01*
X907029Y322925D01*
X906963Y322761D01*
X906907Y322580D01*
X906861Y322379D01*
X906826Y322161D01*
X906800Y321925D01*
X906780Y321396D01*
X904240D01*
D02*
G37*
G36*
X638768Y503936D02*
X639021Y503944D01*
X639263Y503966D01*
X639494Y504005D01*
X639714Y504058D01*
X639923Y504127D01*
X640122Y504210D01*
X640309Y504309D01*
X640486Y504424D01*
X640651Y504553D01*
X640806Y504698D01*
Y501142D01*
X640651Y501287D01*
X640486Y501416D01*
X640309Y501531D01*
X640122Y501630D01*
X639923Y501713D01*
X639714Y501782D01*
X639494Y501835D01*
X639263Y501874D01*
X639021Y501896D01*
X638768Y501904D01*
Y503936D01*
D02*
G37*
G36*
X644943Y513513D02*
X645199Y513522D01*
X645440Y513548D01*
X645665Y513592D01*
X645873Y513654D01*
X646067Y513733D01*
X646244Y513830D01*
X646406Y513945D01*
X646552Y514077D01*
X646682Y514227D01*
X646796Y514394D01*
X647613Y510933D01*
X647435Y511037D01*
X647250Y511130D01*
X647056Y511212D01*
X646854Y511284D01*
X646645Y511344D01*
X646426Y511393D01*
X646200Y511432D01*
X645723Y511475D01*
X645473Y511481D01*
X644943Y513513D01*
D02*
G37*
G36*
X733974Y491490D02*
X733700Y491485D01*
X733209Y491444D01*
X732990Y491409D01*
X732790Y491363D01*
X732608Y491307D01*
X732445Y491241D01*
X732300Y491165D01*
X732173Y491078D01*
X732064Y490982D01*
Y494538D01*
X732173Y494441D01*
X732300Y494355D01*
X732445Y494279D01*
X732608Y494213D01*
X732790Y494157D01*
X732990Y494111D01*
X733209Y494076D01*
X733446Y494050D01*
X733974Y494030D01*
Y491490D01*
D02*
G37*
G36*
Y514350D02*
X733700Y514345D01*
X733209Y514304D01*
X732990Y514269D01*
X732790Y514223D01*
X732608Y514167D01*
X732445Y514101D01*
X732300Y514025D01*
X732173Y513938D01*
X732064Y513842D01*
Y517398D01*
X732173Y517301D01*
X732300Y517215D01*
X732445Y517139D01*
X732608Y517073D01*
X732790Y517017D01*
X732990Y516971D01*
X733209Y516936D01*
X733446Y516910D01*
X733974Y516890D01*
Y514350D01*
D02*
G37*
G36*
X745576Y494030D02*
X745850Y494035D01*
X746341Y494076D01*
X746560Y494111D01*
X746760Y494157D01*
X746942Y494213D01*
X747105Y494279D01*
X747250Y494355D01*
X747377Y494441D01*
X747486Y494538D01*
Y490982D01*
X747377Y491078D01*
X747250Y491165D01*
X747105Y491241D01*
X746942Y491307D01*
X746760Y491363D01*
X746560Y491409D01*
X746341Y491444D01*
X746105Y491470D01*
X745576Y491490D01*
Y494030D01*
D02*
G37*
G36*
Y516890D02*
X745850Y516895D01*
X746341Y516936D01*
X746560Y516971D01*
X746760Y517017D01*
X746942Y517073D01*
X747105Y517139D01*
X747250Y517215D01*
X747377Y517301D01*
X747486Y517398D01*
Y513842D01*
X747377Y513938D01*
X747250Y514025D01*
X747105Y514101D01*
X746942Y514167D01*
X746760Y514223D01*
X746560Y514269D01*
X746341Y514304D01*
X746105Y514330D01*
X745576Y514350D01*
Y516890D01*
D02*
G37*
G36*
X775884Y491490D02*
X775611Y491485D01*
X775119Y491444D01*
X774901Y491409D01*
X774700Y491363D01*
X774519Y491307D01*
X774355Y491241D01*
X774210Y491165D01*
X774083Y491078D01*
X773974Y490982D01*
Y494538D01*
X774083Y494441D01*
X774210Y494355D01*
X774355Y494279D01*
X774519Y494213D01*
X774700Y494157D01*
X774901Y494111D01*
X775119Y494076D01*
X775356Y494050D01*
X775884Y494030D01*
Y491490D01*
D02*
G37*
G36*
Y514350D02*
X775611Y514345D01*
X775119Y514304D01*
X774901Y514269D01*
X774700Y514223D01*
X774519Y514167D01*
X774355Y514101D01*
X774210Y514025D01*
X774083Y513938D01*
X773974Y513842D01*
Y517398D01*
X774083Y517301D01*
X774210Y517215D01*
X774355Y517139D01*
X774519Y517073D01*
X774700Y517017D01*
X774901Y516971D01*
X775119Y516936D01*
X775356Y516910D01*
X775884Y516890D01*
Y514350D01*
D02*
G37*
G36*
X420091Y1021545D02*
X419902Y1021348D01*
X419583Y1020972D01*
X419453Y1020792D01*
X419344Y1020619D01*
X419255Y1020450D01*
X419186Y1020288D01*
X419137Y1020131D01*
X419109Y1019980D01*
X419100Y1019835D01*
X416585Y1022350D01*
X416730Y1022358D01*
X416881Y1022387D01*
X417038Y1022436D01*
X417200Y1022505D01*
X417369Y1022594D01*
X417542Y1022703D01*
X417722Y1022833D01*
X417907Y1022982D01*
X418295Y1023341D01*
X420091Y1021545D01*
D02*
G37*
G36*
X757331Y1017887D02*
X757245Y1017760D01*
X757169Y1017615D01*
X757103Y1017451D01*
X757047Y1017270D01*
X757001Y1017069D01*
X756966Y1016851D01*
X756940Y1016615D01*
X756920Y1016086D01*
X754380D01*
X754375Y1016359D01*
X754334Y1016851D01*
X754299Y1017069D01*
X754253Y1017270D01*
X754197Y1017451D01*
X754131Y1017615D01*
X754055Y1017760D01*
X753969Y1017887D01*
X753872Y1017996D01*
X757428D01*
X757331Y1017887D01*
D02*
G37*
G36*
X499521Y996297D02*
X499435Y996170D01*
X499359Y996025D01*
X499293Y995862D01*
X499237Y995680D01*
X499191Y995480D01*
X499156Y995261D01*
X499130Y995024D01*
X499110Y994496D01*
X496570D01*
X496565Y994770D01*
X496524Y995261D01*
X496489Y995480D01*
X496443Y995680D01*
X496387Y995862D01*
X496321Y996025D01*
X496245Y996170D01*
X496158Y996297D01*
X496062Y996406D01*
X499618D01*
X499521Y996297D01*
D02*
G37*
G36*
X603976Y993902D02*
X603867Y993998D01*
X603740Y994085D01*
X603595Y994161D01*
X603432Y994227D01*
X603250Y994283D01*
X603050Y994329D01*
X602831Y994364D01*
X602594Y994390D01*
X602066Y994410D01*
Y996950D01*
X602340Y996955D01*
X602831Y996996D01*
X603050Y997031D01*
X603250Y997077D01*
X603432Y997133D01*
X603595Y997199D01*
X603740Y997275D01*
X603867Y997362D01*
X603976Y997458D01*
Y993902D01*
D02*
G37*
G36*
X418242Y995027D02*
X418155Y994900D01*
X418079Y994755D01*
X418013Y994592D01*
X417957Y994410D01*
X417911Y994210D01*
X417876Y993991D01*
X417850Y993755D01*
X417830Y993226D01*
X415290D01*
X415285Y993500D01*
X415244Y993991D01*
X415209Y994210D01*
X415163Y994410D01*
X415107Y994592D01*
X415041Y994755D01*
X414965Y994900D01*
X414879Y995027D01*
X414782Y995136D01*
X418338D01*
X418242Y995027D01*
D02*
G37*
G36*
X645572Y993757D02*
X645485Y993630D01*
X645409Y993485D01*
X645343Y993322D01*
X645287Y993140D01*
X645241Y992940D01*
X645206Y992721D01*
X645180Y992485D01*
X645160Y991956D01*
X642620D01*
X642615Y992230D01*
X642574Y992721D01*
X642539Y992940D01*
X642493Y993140D01*
X642437Y993322D01*
X642371Y993485D01*
X642295Y993630D01*
X642208Y993757D01*
X642112Y993866D01*
X645668D01*
X645572Y993757D01*
D02*
G37*
G36*
X645173Y975891D02*
X645273Y974905D01*
X645361Y974504D01*
X645475Y974165D01*
X645613Y973888D01*
X645777Y973673D01*
X645965Y973519D01*
X646179Y973426D01*
X646418Y973395D01*
X641362D01*
X641601Y973426D01*
X641815Y973519D01*
X642003Y973673D01*
X642167Y973888D01*
X642305Y974165D01*
X642419Y974504D01*
X642507Y974905D01*
X642570Y975367D01*
X642607Y975891D01*
X642620Y976476D01*
X645160D01*
X645173Y975891D01*
D02*
G37*
G36*
X499123Y974621D02*
X499223Y973635D01*
X499311Y973234D01*
X499425Y972895D01*
X499563Y972618D01*
X499727Y972403D01*
X499915Y972249D01*
X500129Y972156D01*
X500368Y972125D01*
X495312D01*
X495551Y972156D01*
X495765Y972249D01*
X495953Y972403D01*
X496117Y972618D01*
X496255Y972895D01*
X496369Y973234D01*
X496457Y973635D01*
X496520Y974097D01*
X496557Y974621D01*
X496570Y975206D01*
X499110D01*
X499123Y974621D01*
D02*
G37*
G36*
X454667Y975250D02*
X454841Y972701D01*
X454920Y972291D01*
X455014Y971972D01*
X455123Y971745D01*
X455246Y971608D01*
X455383Y971563D01*
X448857D01*
X448994Y971608D01*
X449117Y971745D01*
X449226Y971972D01*
X449320Y972291D01*
X449399Y972701D01*
X449464Y973201D01*
X449551Y974476D01*
X449580Y976115D01*
X454660D01*
X454667Y975250D01*
D02*
G37*
G36*
X484632Y975295D02*
X484822Y972903D01*
X484909Y972527D01*
X485012Y972239D01*
X485131Y972039D01*
X485265Y971928D01*
X485415Y971906D01*
X478759Y970980D01*
X478909Y971050D01*
X479042Y971220D01*
X479160Y971488D01*
X479262Y971854D01*
X479348Y972318D01*
X479419Y972881D01*
X479513Y974301D01*
X479544Y976115D01*
X484624D01*
X484632Y975295D01*
D02*
G37*
G36*
X469649Y958244D02*
X469435Y958151D01*
X469247Y957997D01*
X469083Y957782D01*
X468945Y957505D01*
X468831Y957166D01*
X468743Y956765D01*
X468680Y956303D01*
X468643Y955779D01*
X468630Y955194D01*
X466090D01*
X466077Y955779D01*
X465977Y956765D01*
X465889Y957166D01*
X465775Y957505D01*
X465637Y957782D01*
X465473Y957997D01*
X465285Y958151D01*
X465071Y958244D01*
X464832Y958275D01*
X469888D01*
X469649Y958244D01*
D02*
G37*
G36*
X321560Y949055D02*
X320056Y947330D01*
X319446Y946511D01*
X318929Y945722D01*
X318506Y944963D01*
X318177Y944232D01*
X317942Y943531D01*
X317801Y942860D01*
X317754Y942218D01*
X314706D01*
X314659Y942860D01*
X314518Y943531D01*
X314283Y944232D01*
X313954Y944963D01*
X313531Y945722D01*
X313014Y946511D01*
X312404Y947330D01*
X311699Y948178D01*
X310007Y949961D01*
X322453D01*
X321560Y949055D01*
D02*
G37*
G36*
X497296Y932942D02*
X497187Y933038D01*
X497060Y933125D01*
X496915Y933201D01*
X496752Y933267D01*
X496570Y933323D01*
X496370Y933369D01*
X496151Y933404D01*
X495914Y933430D01*
X495386Y933450D01*
Y935990D01*
X495659Y935995D01*
X496151Y936036D01*
X496370Y936071D01*
X496570Y936117D01*
X496752Y936173D01*
X496915Y936239D01*
X497060Y936315D01*
X497187Y936402D01*
X497296Y936498D01*
Y932942D01*
D02*
G37*
G36*
X239426Y936081D02*
X239517Y935260D01*
X239669Y934465D01*
X239883Y933697D01*
X240157Y932955D01*
X240492Y932239D01*
X240889Y931550D01*
X241346Y930886D01*
X241864Y930249D01*
X242443Y929639D01*
X229997D01*
X230576Y930249D01*
X231094Y930886D01*
X231551Y931550D01*
X231948Y932239D01*
X232283Y932955D01*
X232557Y933697D01*
X232771Y934465D01*
X232923Y935260D01*
X233015Y936081D01*
X233045Y936928D01*
X239395D01*
X239426Y936081D01*
D02*
G37*
G36*
X529595Y920390D02*
X529636Y919899D01*
X529671Y919680D01*
X529717Y919480D01*
X529773Y919298D01*
X529839Y919135D01*
X529915Y918990D01*
X530001Y918863D01*
X530098Y918754D01*
X526542D01*
X526638Y918863D01*
X526725Y918990D01*
X526801Y919135D01*
X526867Y919298D01*
X526923Y919480D01*
X526969Y919680D01*
X527004Y919899D01*
X527030Y920135D01*
X527050Y920664D01*
X529590D01*
X529595Y920390D01*
D02*
G37*
G36*
X497296Y915162D02*
X497187Y915258D01*
X497060Y915345D01*
X496915Y915421D01*
X496752Y915487D01*
X496570Y915543D01*
X496370Y915589D01*
X496151Y915624D01*
X495914Y915650D01*
X495386Y915670D01*
Y918210D01*
X495659Y918215D01*
X496151Y918256D01*
X496370Y918291D01*
X496570Y918337D01*
X496752Y918393D01*
X496915Y918459D01*
X497060Y918535D01*
X497187Y918622D01*
X497296Y918718D01*
Y915162D01*
D02*
G37*
G36*
X608367Y919857D02*
X608477Y919087D01*
X608661Y918322D01*
X608919Y917563D01*
X609251Y916810D01*
X609656Y916062D01*
X610135Y915320D01*
X610687Y914584D01*
X611313Y913854D01*
X612013Y913129D01*
X599567D01*
X600267Y913854D01*
X600893Y914584D01*
X601445Y915320D01*
X601924Y916062D01*
X602329Y916810D01*
X602661Y917563D01*
X602919Y918322D01*
X603103Y919087D01*
X603213Y919857D01*
X603250Y920633D01*
X608330D01*
X608367Y919857D01*
D02*
G37*
G36*
X241864Y916331D02*
X241346Y915694D01*
X240889Y915031D01*
X240492Y914341D01*
X240157Y913625D01*
X239883Y912883D01*
X239669Y912115D01*
X239517Y911320D01*
X239426Y910499D01*
X239395Y909652D01*
X233045D01*
X233015Y910499D01*
X232923Y911320D01*
X232771Y912115D01*
X232557Y912883D01*
X232283Y913625D01*
X231948Y914341D01*
X231551Y915031D01*
X231094Y915694D01*
X230576Y916331D01*
X229997Y916941D01*
X242443D01*
X241864Y916331D01*
D02*
G37*
G36*
X599441Y900557D02*
X598716Y901257D01*
X597986Y901883D01*
X597250Y902435D01*
X596508Y902914D01*
X595760Y903319D01*
X595007Y903651D01*
X594248Y903908D01*
X593483Y904093D01*
X593090Y904149D01*
X592697Y904093D01*
X591932Y903908D01*
X591173Y903651D01*
X590420Y903319D01*
X589672Y902914D01*
X588930Y902435D01*
X588194Y901883D01*
X587464Y901257D01*
X586739Y900557D01*
Y913003D01*
X587464Y912303D01*
X588194Y911677D01*
X588930Y911125D01*
X589672Y910646D01*
X590420Y910241D01*
X591173Y909909D01*
X591932Y909651D01*
X592697Y909467D01*
X593090Y909411D01*
X593483Y909467D01*
X594248Y909651D01*
X595007Y909909D01*
X595760Y910241D01*
X596508Y910646D01*
X597250Y911125D01*
X597986Y911677D01*
X598716Y912303D01*
X599441Y913003D01*
Y900557D01*
D02*
G37*
G36*
X317801Y903720D02*
X317942Y903049D01*
X318177Y902348D01*
X318506Y901617D01*
X318929Y900858D01*
X319446Y900069D01*
X320056Y899250D01*
X320761Y898402D01*
X322453Y896619D01*
X310007D01*
X310900Y897525D01*
X312404Y899250D01*
X313014Y900069D01*
X313531Y900858D01*
X313954Y901617D01*
X314283Y902348D01*
X314518Y903049D01*
X314659Y903720D01*
X314706Y904362D01*
X317754D01*
X317801Y903720D01*
D02*
G37*
G36*
X242174Y886426D02*
X242074Y886553D01*
X241905Y886667D01*
X241664Y886767D01*
X241353Y886854D01*
X240972Y886928D01*
X240519Y886988D01*
X239403Y887068D01*
X238006Y887095D01*
Y893445D01*
X238740Y893452D01*
X240972Y893612D01*
X241353Y893686D01*
X241664Y893773D01*
X241905Y893873D01*
X242074Y893987D01*
X242174Y894114D01*
Y886426D01*
D02*
G37*
G36*
X255834Y883311D02*
X255316Y882674D01*
X254858Y882010D01*
X254462Y881321D01*
X254127Y880605D01*
X253853Y879863D01*
X253639Y879095D01*
X253487Y878300D01*
X253396Y877479D01*
X253365Y876632D01*
X247015D01*
X246985Y877479D01*
X246893Y878300D01*
X246741Y879095D01*
X246527Y879863D01*
X246253Y880605D01*
X245918Y881321D01*
X245522Y882010D01*
X245064Y882674D01*
X244546Y883311D01*
X243967Y883921D01*
X256413D01*
X255834Y883311D01*
D02*
G37*
G36*
X599441Y849757D02*
X598716Y850457D01*
X597986Y851083D01*
X597250Y851635D01*
X596508Y852114D01*
X595760Y852519D01*
X595007Y852851D01*
X594248Y853109D01*
X593483Y853293D01*
X593090Y853349D01*
X592697Y853293D01*
X591932Y853109D01*
X591173Y852851D01*
X590420Y852519D01*
X589672Y852114D01*
X588930Y851635D01*
X588194Y851083D01*
X587464Y850457D01*
X586739Y849757D01*
Y862203D01*
X587464Y861503D01*
X588194Y860877D01*
X588930Y860325D01*
X589672Y859846D01*
X590420Y859441D01*
X591173Y859109D01*
X591932Y858851D01*
X592697Y858667D01*
X593090Y858611D01*
X593483Y858667D01*
X594248Y858851D01*
X595007Y859109D01*
X595760Y859441D01*
X596508Y859846D01*
X597250Y860325D01*
X597986Y860877D01*
X598716Y861503D01*
X599441Y862203D01*
Y849757D01*
D02*
G37*
G36*
X585913Y848906D02*
X585287Y848176D01*
X584735Y847440D01*
X584256Y846698D01*
X583851Y845950D01*
X583519Y845197D01*
X583261Y844438D01*
X583077Y843673D01*
X582967Y842903D01*
X582930Y842127D01*
X577850D01*
X577813Y842903D01*
X577703Y843673D01*
X577519Y844438D01*
X577261Y845197D01*
X576929Y845950D01*
X576524Y846698D01*
X576045Y847440D01*
X575493Y848176D01*
X574867Y848906D01*
X574167Y849631D01*
X586613D01*
X585913Y848906D01*
D02*
G37*
G36*
X657316Y772922D02*
X657254Y772970D01*
X657167Y773013D01*
X657055Y773052D01*
X656918Y773085D01*
X656756Y773112D01*
X656358Y773153D01*
X655860Y773174D01*
X655574Y773176D01*
Y776224D01*
X655860Y776227D01*
X656756Y776288D01*
X656918Y776315D01*
X657055Y776348D01*
X657167Y776387D01*
X657254Y776430D01*
X657316Y776478D01*
Y772922D01*
D02*
G37*
G36*
X531466Y776430D02*
X531553Y776387D01*
X531665Y776348D01*
X531802Y776315D01*
X531964Y776288D01*
X532362Y776247D01*
X532860Y776227D01*
X533146Y776224D01*
Y773176D01*
X532860Y773174D01*
X531964Y773112D01*
X531802Y773085D01*
X531665Y773052D01*
X531553Y773013D01*
X531466Y772970D01*
X531404Y772922D01*
Y776478D01*
X531466Y776430D01*
D02*
G37*
G36*
X263556Y757011D02*
X263647Y756190D01*
X263799Y755395D01*
X264013Y754627D01*
X264287Y753885D01*
X264622Y753169D01*
X265019Y752479D01*
X265476Y751816D01*
X265994Y751179D01*
X266573Y750569D01*
X254127D01*
X254706Y751179D01*
X255224Y751816D01*
X255681Y752479D01*
X256078Y753169D01*
X256413Y753885D01*
X256687Y754627D01*
X256901Y755395D01*
X257053Y756190D01*
X257145Y757011D01*
X257175Y757858D01*
X263525D01*
X263556Y757011D01*
D02*
G37*
G36*
X252334Y740376D02*
X252234Y740503D01*
X252064Y740617D01*
X251824Y740717D01*
X251513Y740804D01*
X251131Y740878D01*
X250679Y740938D01*
X249564Y741018D01*
X248165Y741045D01*
Y747395D01*
X248900Y747402D01*
X251131Y747562D01*
X251513Y747636D01*
X251824Y747723D01*
X252064Y747823D01*
X252234Y747937D01*
X252334Y748064D01*
Y740376D01*
D02*
G37*
G36*
X331720Y736965D02*
X330216Y735240D01*
X329606Y734421D01*
X329089Y733632D01*
X328666Y732873D01*
X328337Y732142D01*
X328102Y731441D01*
X327961Y730770D01*
X327914Y730128D01*
X324866D01*
X324819Y730770D01*
X324678Y731441D01*
X324443Y732142D01*
X324114Y732873D01*
X323691Y733632D01*
X323174Y734421D01*
X322564Y735240D01*
X321859Y736088D01*
X320167Y737871D01*
X332613D01*
X331720Y736965D01*
D02*
G37*
G36*
X483875Y722271D02*
X483916Y721779D01*
X483951Y721561D01*
X483997Y721360D01*
X484053Y721179D01*
X484119Y721015D01*
X484195Y720870D01*
X484282Y720743D01*
X484378Y720634D01*
X480822D01*
X480919Y720743D01*
X481005Y720870D01*
X481081Y721015D01*
X481147Y721179D01*
X481203Y721360D01*
X481249Y721561D01*
X481284Y721779D01*
X481310Y722016D01*
X481330Y722544D01*
X483870D01*
X483875Y722271D01*
D02*
G37*
G36*
X249585Y723991D02*
X249677Y723170D01*
X249829Y722375D01*
X250043Y721607D01*
X250317Y720865D01*
X250652Y720149D01*
X251049Y719460D01*
X251506Y718796D01*
X252024Y718159D01*
X252603Y717549D01*
X240157D01*
X240736Y718159D01*
X241254Y718796D01*
X241712Y719460D01*
X242108Y720149D01*
X242443Y720865D01*
X242717Y721607D01*
X242931Y722375D01*
X243083Y723170D01*
X243174Y723991D01*
X243205Y724838D01*
X249555D01*
X249585Y723991D01*
D02*
G37*
G36*
X394426Y709422D02*
X394364Y709470D01*
X394277Y709513D01*
X394165Y709551D01*
X394028Y709585D01*
X393866Y709613D01*
X393468Y709653D01*
X392970Y709673D01*
X392684Y709676D01*
Y712724D01*
X392970Y712727D01*
X393866Y712787D01*
X394028Y712815D01*
X394165Y712849D01*
X394277Y712887D01*
X394364Y712930D01*
X394426Y712978D01*
Y709422D01*
D02*
G37*
G36*
X347615Y716530D02*
X349340Y715026D01*
X350159Y714416D01*
X350948Y713899D01*
X351707Y713476D01*
X352438Y713147D01*
X353139Y712912D01*
X353810Y712771D01*
X354452Y712724D01*
Y709676D01*
X353810Y709629D01*
X353139Y709488D01*
X352438Y709253D01*
X351707Y708924D01*
X350948Y708501D01*
X350159Y707984D01*
X349340Y707374D01*
X348492Y706669D01*
X346709Y704977D01*
Y717423D01*
X347615Y716530D01*
D02*
G37*
G36*
X705576Y697992D02*
X705514Y698040D01*
X705427Y698083D01*
X705315Y698121D01*
X705178Y698155D01*
X705016Y698183D01*
X704618Y698223D01*
X704120Y698243D01*
X703834Y698246D01*
Y701294D01*
X704120Y701296D01*
X705016Y701357D01*
X705178Y701385D01*
X705315Y701419D01*
X705427Y701457D01*
X705514Y701500D01*
X705576Y701548D01*
Y697992D01*
D02*
G37*
G36*
X666086Y701500D02*
X666173Y701457D01*
X666285Y701419D01*
X666422Y701385D01*
X666584Y701357D01*
X666982Y701317D01*
X667480Y701296D01*
X667766Y701294D01*
Y698246D01*
X667480Y698243D01*
X666584Y698183D01*
X666422Y698155D01*
X666285Y698121D01*
X666173Y698083D01*
X666086Y698040D01*
X666024Y697992D01*
Y701548D01*
X666086Y701500D01*
D02*
G37*
G36*
X252024Y704241D02*
X251506Y703604D01*
X251049Y702941D01*
X250652Y702251D01*
X250317Y701535D01*
X250043Y700793D01*
X249829Y700025D01*
X249677Y699230D01*
X249585Y698409D01*
X249555Y697562D01*
X243205D01*
X243174Y698409D01*
X243083Y699230D01*
X242931Y700025D01*
X242717Y700793D01*
X242443Y701535D01*
X242108Y702251D01*
X241712Y702941D01*
X241254Y703604D01*
X240736Y704241D01*
X240157Y704851D01*
X252603D01*
X252024Y704241D01*
D02*
G37*
G36*
X480786Y696722D02*
X480677Y696818D01*
X480550Y696905D01*
X480405Y696981D01*
X480242Y697047D01*
X480060Y697103D01*
X479860Y697149D01*
X479641Y697184D01*
X479404Y697210D01*
X478876Y697230D01*
Y699770D01*
X479150Y699775D01*
X479641Y699816D01*
X479860Y699851D01*
X480060Y699897D01*
X480242Y699953D01*
X480405Y700019D01*
X480550Y700095D01*
X480677Y700182D01*
X480786Y700278D01*
Y696722D01*
D02*
G37*
G36*
X798286Y689102D02*
X798177Y689199D01*
X798050Y689285D01*
X797905Y689361D01*
X797741Y689427D01*
X797560Y689483D01*
X797359Y689529D01*
X797141Y689564D01*
X796905Y689590D01*
X796376Y689610D01*
Y692150D01*
X796649Y692155D01*
X797141Y692196D01*
X797359Y692231D01*
X797560Y692277D01*
X797741Y692333D01*
X797905Y692399D01*
X798050Y692475D01*
X798177Y692561D01*
X798286Y692658D01*
Y689102D01*
D02*
G37*
G36*
X327961Y691630D02*
X328102Y690959D01*
X328337Y690258D01*
X328666Y689527D01*
X329089Y688768D01*
X329606Y687979D01*
X330216Y687160D01*
X330921Y686312D01*
X332613Y684529D01*
X320167D01*
X321060Y685435D01*
X322564Y687160D01*
X323174Y687979D01*
X323691Y688768D01*
X324114Y689527D01*
X324443Y690258D01*
X324678Y690959D01*
X324819Y691630D01*
X324866Y692272D01*
X327914D01*
X327961Y691630D01*
D02*
G37*
G36*
X395696Y676402D02*
X395634Y676450D01*
X395547Y676493D01*
X395435Y676532D01*
X395298Y676565D01*
X395136Y676592D01*
X394738Y676633D01*
X394240Y676654D01*
X393954Y676656D01*
Y679704D01*
X394240Y679706D01*
X395136Y679768D01*
X395298Y679795D01*
X395435Y679828D01*
X395547Y679867D01*
X395634Y679910D01*
X395696Y679958D01*
Y676402D01*
D02*
G37*
G36*
X252334Y674336D02*
X252234Y674463D01*
X252064Y674577D01*
X251824Y674677D01*
X251513Y674764D01*
X251131Y674838D01*
X250679Y674898D01*
X249564Y674978D01*
X248165Y675005D01*
Y681355D01*
X248900Y681362D01*
X251131Y681522D01*
X251513Y681596D01*
X251824Y681683D01*
X252064Y681783D01*
X252234Y681897D01*
X252334Y682024D01*
Y674336D01*
D02*
G37*
G36*
X333645Y683510D02*
X335370Y682007D01*
X336189Y681396D01*
X336978Y680879D01*
X337737Y680456D01*
X338468Y680127D01*
X339169Y679892D01*
X339840Y679751D01*
X340482Y679704D01*
Y676656D01*
X339840Y676609D01*
X339169Y676468D01*
X338468Y676233D01*
X337737Y675904D01*
X336978Y675481D01*
X336189Y674964D01*
X335370Y674353D01*
X334522Y673649D01*
X332739Y671957D01*
Y684403D01*
X333645Y683510D01*
D02*
G37*
G36*
X265994Y671221D02*
X265476Y670584D01*
X265019Y669921D01*
X264622Y669231D01*
X264287Y668515D01*
X264013Y667773D01*
X263799Y667005D01*
X263647Y666210D01*
X263556Y665389D01*
X263525Y664542D01*
X257175D01*
X257145Y665389D01*
X257053Y666210D01*
X256901Y667005D01*
X256687Y667773D01*
X256413Y668515D01*
X256078Y669231D01*
X255681Y669921D01*
X255224Y670584D01*
X254706Y671221D01*
X254127Y671831D01*
X266573D01*
X265994Y671221D01*
D02*
G37*
G36*
X653159Y631738D02*
X653026Y631460D01*
X652909Y631101D01*
X652807Y630662D01*
X652721Y630141D01*
X652596Y628856D01*
X652534Y627248D01*
X652526Y626322D01*
X650494D01*
X650486Y627248D01*
X650299Y630141D01*
X650213Y630662D01*
X650111Y631101D01*
X649994Y631460D01*
X649861Y631738D01*
X649713Y631935D01*
X653307D01*
X653159Y631738D01*
D02*
G37*
G36*
X665843Y622871D02*
X665714Y622705D01*
X665599Y622529D01*
X665500Y622341D01*
X665416Y622143D01*
X665348Y621934D01*
X665295Y621714D01*
X665257Y621483D01*
X665234Y621241D01*
X665226Y620988D01*
X663194D01*
X663186Y621241D01*
X663164Y621483D01*
X663125Y621714D01*
X663072Y621934D01*
X663003Y622143D01*
X662920Y622341D01*
X662821Y622529D01*
X662706Y622705D01*
X662577Y622871D01*
X662432Y623026D01*
X665988D01*
X665843Y622871D01*
D02*
G37*
G36*
X820746Y617181D02*
X820787Y616690D01*
X820822Y616471D01*
X820868Y616271D01*
X820924Y616089D01*
X820990Y615926D01*
X821066Y615781D01*
X821152Y615654D01*
X821249Y615545D01*
X817693D01*
X817789Y615654D01*
X817876Y615781D01*
X817952Y615926D01*
X818018Y616089D01*
X818074Y616271D01*
X818120Y616471D01*
X818155Y616690D01*
X818181Y616926D01*
X818201Y617455D01*
X820741D01*
X820746Y617181D01*
D02*
G37*
G36*
X675749Y615087D02*
X675584Y614967D01*
X675436Y614832D01*
X675305Y614681D01*
X675192Y614516D01*
X675096Y614335D01*
X675017Y614140D01*
X674956Y613929D01*
X674913Y613704D01*
X674887Y613463D01*
X674878Y613207D01*
X672846Y613664D01*
X672840Y613915D01*
X672794Y614391D01*
X672753Y614617D01*
X672701Y614835D01*
X672637Y615044D01*
X672561Y615245D01*
X672474Y615438D01*
X672375Y615622D01*
X672265Y615798D01*
X675749Y615087D01*
D02*
G37*
G36*
X684505Y608330D02*
X684293Y608323D01*
X684084Y608298D01*
X683878Y608253D01*
X683676Y608191D01*
X683476Y608110D01*
X683280Y608010D01*
X683086Y607892D01*
X682896Y607756D01*
X682709Y607601D01*
X682525Y607428D01*
X681088Y608865D01*
X681261Y609049D01*
X681416Y609236D01*
X681553Y609426D01*
X681670Y609620D01*
X681770Y609816D01*
X681851Y610016D01*
X681913Y610218D01*
X681957Y610424D01*
X681983Y610633D01*
X681990Y610845D01*
X684505Y608330D01*
D02*
G37*
G36*
X694665Y600710D02*
X694453Y600703D01*
X694244Y600677D01*
X694038Y600633D01*
X693836Y600571D01*
X693636Y600490D01*
X693440Y600390D01*
X693246Y600272D01*
X693056Y600136D01*
X692869Y599981D01*
X692685Y599808D01*
X691248Y601245D01*
X691421Y601429D01*
X691576Y601616D01*
X691712Y601806D01*
X691830Y602000D01*
X691930Y602196D01*
X692011Y602396D01*
X692073Y602598D01*
X692117Y602804D01*
X692143Y603013D01*
X692150Y603225D01*
X694665Y600710D01*
D02*
G37*
G36*
X746216Y593852D02*
X746107Y593949D01*
X745980Y594035D01*
X745835Y594111D01*
X745671Y594177D01*
X745490Y594233D01*
X745290Y594279D01*
X745071Y594314D01*
X744835Y594340D01*
X744306Y594360D01*
Y596900D01*
X744579Y596905D01*
X745071Y596946D01*
X745290Y596981D01*
X745490Y597027D01*
X745671Y597083D01*
X745835Y597149D01*
X745980Y597225D01*
X746107Y597312D01*
X746216Y597408D01*
Y593852D01*
D02*
G37*
G36*
X733443Y597312D02*
X733570Y597225D01*
X733715Y597149D01*
X733878Y597083D01*
X734060Y597027D01*
X734260Y596981D01*
X734479Y596946D01*
X734715Y596920D01*
X735244Y596900D01*
Y594360D01*
X734970Y594355D01*
X734479Y594314D01*
X734260Y594279D01*
X734060Y594233D01*
X733878Y594177D01*
X733715Y594111D01*
X733570Y594035D01*
X733443Y593949D01*
X733334Y593852D01*
Y597408D01*
X733443Y597312D01*
D02*
G37*
G36*
X902353Y592231D02*
X902480Y592145D01*
X902625Y592069D01*
X902788Y592003D01*
X902970Y591947D01*
X903170Y591901D01*
X903389Y591866D01*
X903625Y591840D01*
X904154Y591820D01*
Y589280D01*
X903880Y589275D01*
X903389Y589234D01*
X903170Y589199D01*
X902970Y589153D01*
X902788Y589097D01*
X902625Y589031D01*
X902480Y588955D01*
X902353Y588868D01*
X902244Y588772D01*
Y592328D01*
X902353Y592231D01*
D02*
G37*
G36*
X477152Y581125D02*
X476979Y580941D01*
X476824Y580754D01*
X476688Y580564D01*
X476570Y580370D01*
X476470Y580174D01*
X476389Y579974D01*
X476327Y579772D01*
X476283Y579566D01*
X476257Y579357D01*
X476250Y579145D01*
X473735Y581660D01*
X473947Y581667D01*
X474156Y581693D01*
X474362Y581737D01*
X474564Y581799D01*
X474764Y581880D01*
X474960Y581980D01*
X475154Y582098D01*
X475344Y582234D01*
X475531Y582389D01*
X475715Y582562D01*
X477152Y581125D01*
D02*
G37*
G36*
X486277Y572470D02*
X485833Y572008D01*
X485714Y571864D01*
X485578Y571674D01*
X485460Y571480D01*
X485360Y571284D01*
X485279Y571084D01*
X485217Y570882D01*
X485173Y570676D01*
X485147Y570467D01*
X485140Y570255D01*
X484635Y570761D01*
X484124Y570229D01*
X482599Y571754D01*
X482637Y571776D01*
X482717Y571840D01*
X483000Y572099D01*
X483150Y572246D01*
X482625Y572770D01*
X482837Y572777D01*
X483046Y572803D01*
X483252Y572847D01*
X483454Y572909D01*
X483654Y572990D01*
X483850Y573090D01*
X484044Y573208D01*
X484234Y573344D01*
X484421Y573499D01*
X484507Y573579D01*
X484840Y573907D01*
X486277Y572470D01*
D02*
G37*
G36*
X480786Y568452D02*
X480724Y568500D01*
X480637Y568543D01*
X480525Y568582D01*
X480388Y568615D01*
X480226Y568643D01*
X479828Y568683D01*
X479330Y568703D01*
X479044Y568706D01*
Y571754D01*
X479330Y571757D01*
X480226Y571818D01*
X480388Y571845D01*
X480525Y571879D01*
X480637Y571917D01*
X480724Y571960D01*
X480786Y572008D01*
Y568452D01*
D02*
G37*
G36*
X494932Y564615D02*
X494759Y564431D01*
X494604Y564244D01*
X494468Y564054D01*
X494350Y563860D01*
X494250Y563664D01*
X494169Y563464D01*
X494107Y563262D01*
X494062Y563056D01*
X494037Y562847D01*
X494030Y562635D01*
X491515Y565150D01*
X491727Y565157D01*
X491936Y565182D01*
X492142Y565227D01*
X492344Y565289D01*
X492544Y565370D01*
X492740Y565470D01*
X492934Y565588D01*
X493124Y565724D01*
X493311Y565879D01*
X493495Y566052D01*
X494932Y564615D01*
D02*
G37*
G36*
X763923Y552862D02*
X764050Y552775D01*
X764195Y552699D01*
X764359Y552633D01*
X764540Y552577D01*
X764741Y552531D01*
X764959Y552496D01*
X765195Y552470D01*
X765724Y552450D01*
Y549910D01*
X765451Y549905D01*
X764959Y549864D01*
X764741Y549829D01*
X764540Y549783D01*
X764359Y549727D01*
X764195Y549661D01*
X764050Y549585D01*
X763923Y549498D01*
X763814Y549402D01*
Y552958D01*
X763923Y552862D01*
D02*
G37*
G36*
X774175Y549383D02*
X774025Y549483D01*
X773787Y549573D01*
X773460Y549652D01*
X773044Y549720D01*
X771947Y549826D01*
X769637Y549905D01*
X768690Y549910D01*
Y552450D01*
X769637Y552455D01*
X773460Y552708D01*
X773787Y552787D01*
X774025Y552877D01*
X774175Y552977D01*
Y549383D01*
D02*
G37*
G36*
X535694Y525569D02*
X535717Y525327D01*
X535755Y525096D01*
X535808Y524876D01*
X535877Y524667D01*
X535960Y524468D01*
X536059Y524281D01*
X536174Y524104D01*
X536303Y523939D01*
X536448Y523784D01*
X532892D01*
X533037Y523939D01*
X533166Y524104D01*
X533281Y524281D01*
X533380Y524468D01*
X533464Y524667D01*
X533532Y524876D01*
X533585Y525096D01*
X533624Y525327D01*
X533646Y525569D01*
X533654Y525822D01*
X535686D01*
X535694Y525569D01*
D02*
G37*
G36*
X654776Y521462D02*
X654621Y521607D01*
X654455Y521736D01*
X654279Y521851D01*
X654091Y521950D01*
X653893Y522034D01*
X653684Y522102D01*
X653464Y522155D01*
X653233Y522193D01*
X652991Y522216D01*
X652738Y522224D01*
Y524256D01*
X652991Y524264D01*
X653233Y524286D01*
X653464Y524325D01*
X653684Y524378D01*
X653893Y524446D01*
X654091Y524530D01*
X654279Y524629D01*
X654455Y524744D01*
X654621Y524873D01*
X654776Y525018D01*
Y521462D01*
D02*
G37*
D10*
X416560Y1019810D02*
X423816Y1027066D01*
X528320Y916940D02*
Y988060D01*
X535940Y995680D01*
X605790D01*
X509270Y735112D02*
X510758Y736600D01*
X554990D01*
X509270Y674588D02*
Y735112D01*
X550193Y667737D02*
X557530Y660400D01*
X516121Y667737D02*
X550193D01*
X509270Y674588D02*
X516121Y667737D01*
X502151Y660117D02*
X541303D01*
X494030Y668238D02*
Y754380D01*
X541303Y660117D02*
X549910Y651510D01*
X494030Y668238D02*
X502151Y660117D01*
X494030Y754380D02*
X496570Y756920D01*
X554990D01*
X621030Y736600D02*
X708660D01*
X619760Y756920D02*
X707390D01*
X549910Y698500D02*
X570230Y678180D01*
X521970Y698500D02*
X549910D01*
X521970Y718820D02*
X548640D01*
X579120Y688340D01*
X922020Y670560D02*
X938312D01*
X872490D02*
X922020D01*
X906700Y298152D02*
Y299440D01*
X719962Y475070D02*
Y776484D01*
X720852Y777374D02*
Y1023546D01*
X719962Y776484D02*
X720852Y777374D01*
X717332Y1027066D02*
X720852Y1023546D01*
X717318Y472426D02*
X719962Y475070D01*
X900430Y590550D02*
X922020D01*
X869950Y668020D02*
X872490Y670560D01*
X868462Y492760D02*
X869950Y494248D01*
Y668020D01*
X772160Y492760D02*
X868462D01*
X731520Y595630D02*
X748030D01*
X621044Y472426D02*
X717318D01*
X819471Y613731D02*
Y648431D01*
X817662Y650240D02*
X819471Y648431D01*
X755650Y461228D02*
Y1019810D01*
X774918Y259080D02*
X905510D01*
X773430Y260568D02*
Y338872D01*
X740628Y340360D02*
X771942D01*
X773430Y338872D01*
Y260568D02*
X774918Y259080D01*
X762000Y551180D02*
X775970D01*
X605790Y453390D02*
X747812D01*
X755650Y461228D01*
X906780Y681990D02*
Y689392D01*
X908268Y690880D02*
X922020D01*
X906780Y689392D02*
X908268Y690880D01*
X904240Y679450D02*
X906780Y681990D01*
X864870Y679450D02*
X904240D01*
X862330Y676910D02*
X864870Y679450D01*
X862330Y524510D02*
Y676910D01*
X772160Y515620D02*
X853440D01*
X862330Y524510D01*
X730250Y492760D02*
X749300D01*
X730250Y515620D02*
X749300D01*
X864652Y399832D02*
X864870Y400050D01*
Y427990D02*
X866140Y426720D01*
X941288Y636270D02*
X976630D01*
X939800Y637758D02*
Y669072D01*
Y637758D02*
X941288Y636270D01*
X938312Y670560D02*
X939800Y669072D01*
X948690Y663158D02*
X950178Y661670D01*
X948690Y663158D02*
Y689392D01*
X950178Y661670D02*
X976630D01*
X922020Y690880D02*
X947202D01*
X948690Y689392D01*
X775970Y690880D02*
X800100D01*
X775970Y650240D02*
X817662D01*
X643890Y966470D02*
Y995680D01*
X467360Y943828D02*
Y965200D01*
X416560Y943828D02*
Y996950D01*
X465872Y942340D02*
X467360Y943828D01*
X418048Y942340D02*
X465872D01*
X416560Y943828D02*
X418048Y942340D01*
X471170Y699988D02*
Y933232D01*
X472658Y698500D02*
X482600D01*
X471170Y699988D02*
X472658Y698500D01*
X471170Y933232D02*
X472658Y934720D01*
X499110D01*
X484088Y916940D02*
X499110D01*
X482600Y915452D02*
X484088Y916940D01*
X482600Y718820D02*
Y915452D01*
X423816Y1027066D02*
X717332D01*
X723900Y406400D02*
X736600D01*
X739140Y403860D01*
Y341848D02*
X740628Y340360D01*
X739140Y341848D02*
Y403860D01*
X907105Y239395D02*
Y257485D01*
X905510Y259080D02*
X907105Y257485D01*
X497840Y965200D02*
Y998220D01*
X440690Y384810D02*
X617975D01*
X619760Y386595D02*
Y431284D01*
X591820Y433070D02*
X617975D01*
X619760Y431284D01*
X617975Y384810D02*
X619760Y386595D01*
X607060Y396755D02*
Y421124D01*
X550425Y394970D02*
X605275D01*
X548640Y396755D02*
Y421124D01*
Y396755D02*
X550425Y394970D01*
X605275D02*
X607060Y396755D01*
X546855Y422910D02*
X548640Y421124D01*
X427990Y422910D02*
X546855D01*
X605275D02*
X607060Y421124D01*
X584200Y422910D02*
X605275D01*
X905510Y307340D02*
Y325120D01*
X906910Y305940D02*
X934252D01*
X905510Y307340D02*
X906910Y305940D01*
X906700Y299440D02*
X934252D01*
D12*
X549910Y651510D02*
X558800D01*
X578130Y618960D02*
Y632180D01*
X558800Y651510D02*
X578130Y632180D01*
X572973Y619117D02*
X573130Y618960D01*
X558133Y643890D02*
X572973Y629050D01*
X542290Y643890D02*
X558133D01*
X572973Y619117D02*
Y629050D01*
X560070Y633730D02*
X567356Y626444D01*
X535940Y633730D02*
X560070D01*
X567356Y626444D02*
X567646D01*
X568130Y625960D01*
X557530Y660400D02*
X583130Y634800D01*
Y618960D02*
Y634800D01*
X563880Y669290D02*
X588130Y645040D01*
Y618960D02*
Y645040D01*
X570230Y678180D02*
X593130Y655280D01*
Y618960D02*
Y655280D01*
X598130Y618960D02*
Y669330D01*
X579120Y688340D02*
X598130Y669330D01*
X601980Y671830D02*
X623130Y650680D01*
X601980Y671830D02*
Y681903D01*
X586328Y697555D02*
X601980Y681903D01*
X623130Y618960D02*
Y650680D01*
X638010Y564080D02*
X673300D01*
X704850Y595630D01*
X506730Y547370D02*
X523440Y564080D01*
X573130Y569080D02*
X573130Y569080D01*
Y599800D01*
X573130Y569080D02*
X616940D01*
X553250D02*
X573130D01*
X616940D02*
X618130Y567890D01*
Y534200D02*
Y567890D01*
X523440Y564080D02*
X553250D01*
X505580Y569080D02*
X553250D01*
X500380Y563880D02*
X505580Y569080D01*
X500380Y553720D02*
Y563880D01*
X546250Y549080D02*
X553250D01*
X534670Y537210D02*
X545766Y548306D01*
X534670Y521970D02*
Y537210D01*
X545766Y548306D02*
Y548596D01*
X546250Y549080D01*
X504190Y575310D02*
X525780D01*
X529550Y579080D01*
X491490Y562610D02*
X504190Y575310D01*
X638010Y599080D02*
X649880D01*
X573850D02*
X638010D01*
X529550Y579080D02*
X553250D01*
X482600Y570230D02*
X496450Y584080D01*
X553250D01*
X531770Y599080D02*
X553250D01*
X527050Y594360D02*
X531770Y599080D01*
X662740Y589080D02*
X684530Y610870D01*
X638010Y589080D02*
X662740D01*
X664210Y613410D02*
Y624840D01*
X673862Y611632D02*
Y616712D01*
X656310Y594080D02*
X673862Y611632D01*
Y616712D02*
X674370Y617220D01*
X675520Y584080D02*
X694690Y603250D01*
X638010Y584080D02*
X675520D01*
X593110Y483850D02*
X613410Y463550D01*
X593110Y483850D02*
Y534180D01*
X618490Y482600D02*
X627380D01*
X623570Y492760D02*
X635000D01*
X608130Y508200D02*
X623570Y492760D01*
X627380Y502920D02*
X642620D01*
X613582Y516718D02*
X627380Y502920D01*
X630503Y512497D02*
X648387D01*
X648970Y513080D01*
X621030Y472440D02*
X621044Y472426D01*
X598130Y490260D02*
X615950Y472440D01*
X621030D01*
X256540Y202745D02*
X257355Y201930D01*
X256260Y186690D02*
X256540Y186970D01*
X124460Y158750D02*
X124888Y158322D01*
X649880Y599080D02*
X664210Y613410D01*
X638010Y594080D02*
X656310D01*
X573130Y599800D02*
X573850Y599080D01*
X573130Y599800D02*
Y618960D01*
X651510Y609600D02*
Y633730D01*
X473710Y579120D02*
X488950Y594360D01*
X527050D01*
X568130Y618960D02*
Y625960D01*
X603130Y497960D02*
Y534200D01*
Y497960D02*
X618490Y482600D01*
X646474Y604564D02*
X651510Y609600D01*
X638010Y604080D02*
X638494Y604564D01*
X646474D01*
X598130Y490260D02*
Y534200D01*
X568130Y421200D02*
X576580Y412750D01*
X568130Y421200D02*
Y534200D01*
X573130Y433980D02*
Y534200D01*
Y433980D02*
X584200Y422910D01*
X578130Y446760D02*
Y534200D01*
Y446760D02*
X591820Y433070D01*
X583130Y459540D02*
Y534200D01*
Y459540D02*
X599440Y443230D01*
X588070Y471110D02*
Y534140D01*
Y471110D02*
X605790Y453390D01*
X618582Y524418D02*
X630503Y512497D01*
X608130Y508200D02*
Y534200D01*
X618582Y524418D02*
Y533748D01*
X613582Y516718D02*
Y533748D01*
X593110Y534180D02*
X593130Y534200D01*
X627090Y523240D02*
X656590D01*
X623130Y527200D02*
X627090Y523240D01*
X623130Y527200D02*
Y534200D01*
X613130D02*
X613582Y533748D01*
X618130Y534200D02*
X618582Y533748D01*
X588070Y534140D02*
X588130Y534200D01*
D15*
X610870Y674370D02*
Y774700D01*
Y674370D02*
X651510Y633730D01*
X372110Y431800D02*
X493594D01*
X496570Y434776D01*
Y549910D01*
X500380Y553720D01*
X506730Y604520D02*
X535940Y633730D01*
X940852Y610870D02*
X976630D01*
X864652Y399832D02*
Y427772D01*
X953770Y375920D02*
Y398780D01*
X944554Y396350D02*
X951340D01*
X868244Y396240D02*
X944444D01*
X864652Y399832D02*
X868244Y396240D01*
X951340Y396350D02*
X953770Y398780D01*
X944444Y396240D02*
X944554Y396350D01*
X953770Y375920D02*
X963930Y365760D01*
Y345440D02*
Y365760D01*
X953770Y474980D02*
X1004134D01*
X1007110Y391160D02*
Y472004D01*
X1004134Y474980D02*
X1007110Y472004D01*
X980440Y364490D02*
X1007110Y391160D01*
X922020Y610870D02*
X940852D01*
X905728D02*
X922020D01*
X133350Y167640D02*
Y218520D01*
X124460Y158750D02*
X133350Y167640D01*
X256444Y77654D02*
Y92614D01*
X260350Y96520D02*
X311150D01*
X256260Y77470D02*
X256444Y77654D01*
Y92614D02*
X260350Y96520D01*
X320040Y87630D02*
X342900D01*
X311150Y96520D02*
X320040Y87630D01*
X675640Y832286D02*
Y840740D01*
Y832286D02*
X682426Y825500D01*
X715010D01*
X854710Y690880D02*
X900430D01*
X876300Y660400D02*
X902752D01*
X904240Y658912D01*
X741680Y651510D02*
Y680720D01*
X904240Y612358D02*
Y658912D01*
Y612358D02*
X905728Y610870D01*
X910590Y426720D02*
X922020Y438150D01*
Y551180D02*
Y570230D01*
Y438150D02*
Y551180D01*
X726440Y774700D02*
X749300Y797560D01*
Y840740D01*
X605790Y906780D02*
Y939800D01*
X576580Y775970D02*
Y800100D01*
X580390Y803910D01*
Y855980D01*
X320040Y201930D02*
Y228600D01*
X312420Y236220D02*
Y270510D01*
Y236220D02*
X320040Y228600D01*
X256540Y202745D02*
Y218520D01*
Y186970D02*
Y202745D01*
X257355Y201930D02*
X320040D01*
X134540Y219710D02*
X255350D01*
X256540Y218520D01*
X133350D02*
X134540Y219710D01*
X91440Y158750D02*
X124460D01*
X342900Y87630D02*
X346630Y91360D01*
Y200740D01*
X345440Y201930D02*
X346630Y200740D01*
X320040Y201930D02*
X345440D01*
X91440Y158750D02*
Y281940D01*
X728980Y551180D02*
X748030D01*
X866140Y426720D02*
X910590D01*
X970280Y718820D02*
X976630Y712470D01*
Y687070D02*
Y712470D01*
X854710Y717332D02*
X856198Y718820D01*
X970280D01*
X854710Y690880D02*
Y717332D01*
X922020Y570230D02*
X939364D01*
X940852Y571718D01*
Y610870D01*
X853222Y551180D02*
X854710Y552668D01*
Y690880D01*
X819150Y551180D02*
X853222D01*
X775970D02*
X819150D01*
X439420Y655320D02*
X481330D01*
X452120Y976115D02*
X453905Y977900D01*
X452120Y965200D02*
Y976115D01*
X480299Y977900D02*
X482085Y976115D01*
X453905Y977900D02*
X480299D01*
X482085Y965715D02*
Y976115D01*
X580390Y855980D02*
X605790D01*
X580390Y906780D02*
X605790D01*
X812800Y115570D02*
Y136450D01*
X934252Y312440D02*
Y318640D01*
X962640Y312440D02*
X963930Y311150D01*
Y266440D02*
Y311150D01*
X934252Y312440D02*
X962640D01*
X934252Y318640D02*
X962740D01*
X963930Y319830D01*
Y345440D01*
X955365Y111125D02*
X978535D01*
X982465Y266440D02*
X984250Y264654D01*
X963930Y266440D02*
X982465D01*
X984250Y116840D02*
Y264654D01*
X978535Y111125D02*
X984250Y116840D01*
X575310Y774700D02*
X610870D01*
D22*
X627380Y965200D02*
X628650Y966470D01*
X349250Y552450D02*
X367030Y570230D01*
X482600D01*
X664210Y699770D02*
X707390D01*
X575310Y774700D02*
X576580Y775970D01*
X326390Y678180D02*
X397510D01*
X579120Y857250D02*
X580390Y855980D01*
X351035Y313690D02*
X682745D01*
X349250Y315476D02*
Y552450D01*
Y315476D02*
X351035Y313690D01*
X684530Y315476D02*
Y345440D01*
X682745Y313690D02*
X684530Y315476D01*
X264676Y294640D02*
X704850D01*
X262890Y270510D02*
Y292854D01*
X704850Y294640D02*
X716280Y306070D01*
X262890Y292854D02*
X264676Y294640D01*
X411480Y375920D02*
Y391914D01*
X413265Y393700D02*
X473710D01*
X411480Y391914D02*
X413265Y393700D01*
X412750Y405130D02*
X505460D01*
X599440Y443230D02*
X713740D01*
X716280Y440690D01*
Y306070D02*
Y440690D01*
X340360Y711200D02*
X396240D01*
X482085Y965715D02*
X482600Y965200D01*
X326390Y678180D02*
Y744220D01*
X316230Y890270D02*
Y956310D01*
X812800Y206450D02*
Y224790D01*
X633730Y774700D02*
X659130D01*
X529590D02*
X552450D01*
X635590Y345440D02*
X684530D01*
X504190D02*
X550590D01*
D24*
X922020Y551180D02*
D03*
Y570230D02*
D03*
Y590550D02*
D03*
Y610870D02*
D03*
Y631190D02*
D03*
Y650240D02*
D03*
Y670560D02*
D03*
Y690880D02*
D03*
X775970D02*
D03*
Y669290D02*
D03*
Y650240D02*
D03*
Y631190D02*
D03*
Y610870D02*
D03*
Y590550D02*
D03*
Y571500D02*
D03*
Y551180D02*
D03*
D25*
X552450Y774700D02*
D03*
X575310D02*
D03*
X633730D02*
D03*
X610870D02*
D03*
D26*
X568130Y618960D02*
D03*
X573130D02*
D03*
X578130D02*
D03*
X583130D02*
D03*
X588130D02*
D03*
X593130D02*
D03*
X598130D02*
D03*
X603130D02*
D03*
X608130D02*
D03*
X613130D02*
D03*
X618130D02*
D03*
X623130D02*
D03*
Y534200D02*
D03*
X618130D02*
D03*
X613130D02*
D03*
X608130D02*
D03*
X603130D02*
D03*
X598130D02*
D03*
X593130D02*
D03*
X588130D02*
D03*
X583130D02*
D03*
X578130D02*
D03*
X573130D02*
D03*
X568130D02*
D03*
D27*
X638010Y604080D02*
D03*
Y599080D02*
D03*
Y594080D02*
D03*
Y589080D02*
D03*
Y584080D02*
D03*
Y579080D02*
D03*
Y574080D02*
D03*
Y569080D02*
D03*
Y564080D02*
D03*
Y559080D02*
D03*
Y554080D02*
D03*
Y549080D02*
D03*
X553250D02*
D03*
Y554080D02*
D03*
Y559080D02*
D03*
Y564080D02*
D03*
Y569080D02*
D03*
Y574080D02*
D03*
Y579080D02*
D03*
Y584080D02*
D03*
Y589080D02*
D03*
Y594080D02*
D03*
Y599080D02*
D03*
Y604080D02*
D03*
D28*
X635590Y345440D02*
D03*
X550590D02*
D03*
D29*
X934252Y292940D02*
D03*
Y299440D02*
D03*
Y305940D02*
D03*
Y312440D02*
D03*
Y318640D02*
D03*
D30*
X963930Y266440D02*
D03*
Y345440D02*
D03*
D31*
X812800Y136450D02*
D03*
Y206450D02*
D03*
D57*
X628121Y966999D02*
X628650Y966470D01*
X628121Y966999D02*
Y1008121D01*
X250190Y1004401D02*
X253910Y1008121D01*
X628121D01*
X250190Y956310D02*
Y1004401D01*
X585470Y966470D02*
X628650D01*
X562610Y943610D02*
X585470Y966470D01*
X562610Y910500D02*
Y943610D01*
X556350Y904240D02*
X562610Y910500D01*
X516800Y904240D02*
X556350D01*
X513080Y907960D02*
X516800Y904240D01*
X513080Y907960D02*
Y965200D01*
X236220Y923290D02*
Y949498D01*
Y892056D02*
Y923290D01*
X320040Y62230D02*
X449064D01*
X319615D02*
X320040D01*
Y162470D02*
Y176530D01*
X221260Y158750D02*
X316320D01*
X320040Y162470D01*
X154940Y158750D02*
X221260D01*
X221260Y158750D02*
Y186690D01*
X221260Y158750D02*
X221260Y158750D01*
X236220Y949498D02*
X240845Y954123D01*
X248003D02*
X250190Y956310D01*
X240845Y954123D02*
X248003D01*
X210820Y272295D02*
Y277476D01*
X206356Y281940D02*
X210820Y277476D01*
X116840Y281940D02*
X206356D01*
X316320Y40640D02*
X320040Y44360D01*
X224980Y40640D02*
X316320D01*
X320040Y44360D02*
Y62230D01*
X221260Y44360D02*
Y77470D01*
Y44360D02*
X224980Y40640D01*
X885190Y454660D02*
Y553720D01*
X881380Y450850D02*
X885190Y454660D01*
X783590Y307340D02*
X819150D01*
X825500Y313690D01*
X826988Y450850D02*
X881380D01*
X825500Y449362D02*
X826988Y450850D01*
X825500Y313690D02*
Y449362D01*
X685800Y716280D02*
X708660D01*
X783590Y288806D02*
X785376Y287020D01*
X822960D01*
X783590Y288806D02*
Y307340D01*
X756920Y284995D02*
Y307340D01*
X680720Y283210D02*
X755135D01*
X756920Y284995D01*
X676395Y149860D02*
X678180Y151645D01*
Y280670D01*
X450850Y149860D02*
X676395D01*
X678180Y280670D02*
X680720Y283210D01*
X450850Y64015D02*
Y149860D01*
X449064Y62230D02*
X450850Y64015D01*
X212605Y270510D02*
X237490D01*
X210820Y272295D02*
X212605Y270510D01*
X661670Y797560D02*
Y881380D01*
X237490Y270510D02*
Y594360D01*
X260350Y617220D02*
Y678180D01*
X237490Y594360D02*
X260350Y617220D01*
X246380Y679966D02*
Y711200D01*
X248165Y678180D02*
X260350D01*
X246380Y679966D02*
X248165Y678180D01*
X246380Y742434D02*
X248165Y744220D01*
X260350D01*
X246380Y711200D02*
Y742434D01*
X260350Y744220D02*
Y815340D01*
X250190Y825500D02*
X260350Y815340D01*
X250190Y825500D02*
Y890270D01*
X238006D02*
X250190D01*
X236220Y892056D02*
X238006Y890270D01*
X627380Y944880D02*
Y965200D01*
X659884Y941070D02*
X661670Y939285D01*
Y881380D02*
Y939285D01*
X631190Y941070D02*
X659884D01*
X627380Y944880D02*
X631190Y941070D01*
X916940Y290830D02*
X919050Y292940D01*
X934252D01*
X916940Y271998D02*
Y290830D01*
X915452Y270510D02*
X916940Y271998D01*
X824448Y270510D02*
X915452D01*
X822960Y271998D02*
X824448Y270510D01*
X822960Y271998D02*
Y287020D01*
D58*
X812800Y1018540D02*
D03*
D59*
X787400D02*
D03*
D60*
X976630Y687070D02*
D03*
D61*
Y661670D02*
D03*
Y636270D02*
D03*
Y610870D02*
D03*
Y585470D02*
D03*
D62*
X953770Y474980D02*
D03*
Y398780D02*
D03*
Y424180D02*
D03*
Y449580D02*
D03*
X908050Y967740D02*
D03*
X882650D02*
D03*
X857250D02*
D03*
X831850D02*
D03*
X806450D02*
D03*
X781050D02*
D03*
X330200Y923290D02*
D03*
X316230Y890270D02*
D03*
Y956310D02*
D03*
X250190D02*
D03*
X236220Y923290D02*
D03*
X250190Y890270D02*
D03*
X326390Y678180D02*
D03*
X340360Y711200D02*
D03*
X326390Y744220D02*
D03*
X260350Y678180D02*
D03*
X246380Y711200D02*
D03*
X260350Y744220D02*
D03*
X746760Y251460D02*
D03*
Y226060D02*
D03*
Y200660D02*
D03*
Y175260D02*
D03*
Y149860D02*
D03*
X450850Y226060D02*
D03*
Y200660D02*
D03*
Y175260D02*
D03*
Y149860D02*
D03*
X605790Y855980D02*
D03*
Y881380D02*
D03*
Y906780D02*
D03*
X580390D02*
D03*
Y881380D02*
D03*
Y855980D02*
D03*
D63*
X941070Y1012190D02*
D03*
X153670D02*
D03*
Y577850D02*
D03*
X979170Y43180D02*
D03*
X41910D02*
D03*
Y1012190D02*
D03*
D64*
X221260Y186690D02*
D03*
Y77470D02*
D03*
D65*
X256260Y186690D02*
D03*
Y77470D02*
D03*
D66*
X154940Y158750D02*
D03*
X91440D02*
D03*
D67*
X129540Y107950D02*
D03*
D68*
X312420Y270510D02*
D03*
X287020D02*
D03*
X262890D02*
D03*
X237490D02*
D03*
X674370Y966470D02*
D03*
X659130D02*
D03*
X643890D02*
D03*
X628650D02*
D03*
X436880Y965200D02*
D03*
X452120D02*
D03*
X467360D02*
D03*
X482600D02*
D03*
X497840D02*
D03*
X513080D02*
D03*
D69*
X116840Y281940D02*
D03*
X91440D02*
D03*
D70*
X66040D02*
D03*
D71*
X320040Y87630D02*
D03*
Y62230D02*
D03*
Y201930D02*
D03*
Y176530D02*
D03*
X864870Y427990D02*
D03*
D72*
X788670Y427863D02*
D03*
D73*
X955365Y111125D02*
D03*
X907105D02*
D03*
Y239395D02*
D03*
X955365D02*
D03*
D74*
X416560Y1019810D02*
D03*
X628121Y1008121D02*
D03*
X562610Y943610D02*
D03*
X554990Y736600D02*
D03*
Y756920D02*
D03*
X621030Y736600D02*
D03*
X619760Y756920D02*
D03*
X708660Y736600D02*
D03*
X707390Y756920D02*
D03*
X557530Y660400D02*
D03*
X549910Y651510D02*
D03*
X563880Y669290D02*
D03*
X570230Y678180D02*
D03*
X579120Y688340D02*
D03*
X586328Y697555D02*
D03*
X506730Y547370D02*
D03*
Y604520D02*
D03*
X500380Y553720D02*
D03*
X675640Y840740D02*
D03*
X715010Y825500D02*
D03*
X535940Y633730D02*
D03*
X900430Y690880D02*
D03*
Y590550D02*
D03*
X876300Y660400D02*
D03*
X741680Y651510D02*
D03*
Y680720D02*
D03*
X885190Y553720D02*
D03*
X491490Y562610D02*
D03*
X482600Y570230D02*
D03*
X542290Y643890D02*
D03*
X684530Y610870D02*
D03*
X664210Y624840D02*
D03*
X674370Y617220D02*
D03*
X694690Y603250D02*
D03*
X748030Y595630D02*
D03*
X731520D02*
D03*
X704850D02*
D03*
X613410Y463550D02*
D03*
X627380Y482600D02*
D03*
X635000Y492760D02*
D03*
X642620Y502920D02*
D03*
X648970Y513080D02*
D03*
X619760Y472440D02*
D03*
X819471Y613731D02*
D03*
X708660Y716280D02*
D03*
X685800D02*
D03*
X707390Y699770D02*
D03*
X664210D02*
D03*
X749300Y840740D02*
D03*
X726440Y774700D02*
D03*
X605790Y939800D02*
D03*
X783590Y307340D02*
D03*
X756920D02*
D03*
X980440Y364490D02*
D03*
X728980Y551180D02*
D03*
X762000D02*
D03*
X748030D02*
D03*
X651510Y633730D02*
D03*
X772160Y492760D02*
D03*
Y515620D02*
D03*
X749300Y492760D02*
D03*
Y515620D02*
D03*
X730250D02*
D03*
X755650Y1019810D02*
D03*
X730250Y492760D02*
D03*
X854710Y690880D02*
D03*
X800100D02*
D03*
X819150Y551180D02*
D03*
X643890Y995680D02*
D03*
X605790D02*
D03*
X528320Y916940D02*
D03*
X499110D02*
D03*
Y934720D02*
D03*
X482600Y698500D02*
D03*
Y718820D02*
D03*
X521970Y698500D02*
D03*
Y718820D02*
D03*
X481330Y655320D02*
D03*
X439420D02*
D03*
X397510Y678180D02*
D03*
X661670Y797560D02*
D03*
X723900Y406400D02*
D03*
X416560Y996950D02*
D03*
X497840Y998220D02*
D03*
X505460Y405130D02*
D03*
X412750D02*
D03*
X473710Y393700D02*
D03*
X411480Y375920D02*
D03*
X440690Y384810D02*
D03*
X372110Y431800D02*
D03*
X396240Y711200D02*
D03*
X427990Y422910D02*
D03*
X812800Y224790D02*
D03*
Y115570D02*
D03*
X661670Y881380D02*
D03*
X822960Y287020D02*
D03*
X905510Y325120D02*
D03*
X906780Y298450D02*
D03*
X659130Y774700D02*
D03*
X529590D02*
D03*
X684530Y345440D02*
D03*
X504190D02*
D03*
X473710Y579120D02*
D03*
X534670Y521970D02*
D03*
X576580Y412750D02*
D03*
X584200Y422910D02*
D03*
X591820Y433070D02*
D03*
X599440Y443230D02*
D03*
X605790Y453390D02*
D03*
X656590Y523240D02*
D03*
M02*
